<?xml version="1.0" encoding="UTF-8" standalone="no"?>
<!DOCTYPE svg PUBLIC "-//W3C//DTD SVG 1.1//EN" "http://www.w3.org/Graphics/SVG/1.1/DTD/svg11.dtd">
<svg xmlns="http://www.w3.org/2000/svg">
<metadata/>
<defs>
<font id="SSStandard">
<font-face font-family="SS Standard" units-per-em="864" ascent="918" descent="-270"/>
<missing-glyph d="M0 864h864v-864h-864v864zM680 756h-496l248 -248zM108 680v-496l248 248zM184 108h496l-248 248zM756 184v496l-248 -248z"/>
<glyph horiz-adv-x="864" d="M0 864h864v-864h-864v864zM680 756h-496l248 -248zM108 680v-496l248 248zM184 108h496l-248 248zM756 184v496l-248 -248z"/>
<glyph unicode="+" horiz-adv-x="864" d="M522 0h-180q-8 0 -13 5t-5 13v306h-306q-8 0 -13 5t-5 13v180q0 8 5 13t13 5h306v306q0 8 5 13t13 5h180q8 0 13 -5t5 -13v-306h306q8 0 13 -5t5 -13v-180q0 -8 -5 -13t-13 -5h-306v-306q0 -8 -5 -13t-13 -5z"/>
<glyph unicode="-" horiz-adv-x="864" d="M846 324h-828q-8 0 -13 5t-5 13v180q0 8 5 13t13 5h828q8 0 13 -5t5 -13v-180q0 -8 -5 -13t-13 -5z"/>
<glyph unicode="“" horiz-adv-x="864" d="M702 378h108q22 0 38 -16t16 -38v-216q0 -22 -16 -38t-38 -16h-270q-22 0 -38 16t-16 38v270q0 190 99.5 311t260.5 121q8 0 13 -5t5 -13v-163q0 -16 -16 -18q-70 -5 -108 -65t-38 -168zM216 378h108q22 0 38 -16t16 -38v-216q0 -22 -16 -38t-38 -16h-270q-22 0 -38 16 t-16 38v270q0 190 99.5 311t260.5 121q8 0 13 -5t5 -13v-163q0 -16 -16 -18q-70 -5 -108 -65t-38 -168z"/>
<glyph unicode="…" horiz-adv-x="864" d="M324 432q0 45 31.5 76.5t76.5 31.5t76.5 -31.5t31.5 -76.5t-31.5 -76.5t-76.5 -31.5t-76.5 31.5t-31.5 76.5zM0 432q0 45 31.5 76.5t76.5 31.5t76.5 -31.5t31.5 -76.5t-31.5 -76.5t-76.5 -31.5t-76.5 31.5t-31.5 76.5zM648 432q0 45 31.5 76.5t76.5 31.5t76.5 -31.5 t31.5 -76.5t-31.5 -76.5t-76.5 -31.5t-76.5 31.5t-31.5 76.5z"/>
<glyph unicode="ℹ" horiz-adv-x="864" d="M432 864q179 0 305.5 -126.5t126.5 -305.5t-126.5 -305.5t-305.5 -126.5t-305.5 126.5t-126.5 305.5t126.5 305.5t305.5 126.5zM486 162v306h-108v-306h108zM432 558q30 0 51 21t21 51t-21 51t-51 21t-51 -21t-21 -51t21 -51t51 -21z"/>
<glyph unicode="↩" horiz-adv-x="864" d="M830 171q-47 59 -152 88t-246 29v-162q0 -11 -10 -16q-6 -2 -8 -2q-7 0 -11 4l-396 306q-7 5 -7 14t7 14l396 306q9 7 19 2t10 -16v-162q200 0 312.5 -106t119.5 -291q0 -13 -14 -17h-4q-7 0 -16 9z"/>
<glyph unicode="↪" horiz-adv-x="864" d="M34 171q-9 -9 -16 -9h-4q-14 4 -14 17q7 185 119.5 291t312.5 106v162q0 11 10 16t19 -2l396 -306q7 -5 7 -14t-7 -14l-396 -306q-4 -4 -11 -4q-2 0 -8 2q-10 5 -10 16v162q-141 0 -246 -29t-152 -88z"/>
<glyph unicode="↺" horiz-adv-x="864" d="M828 432q0 -164 -116 -280t-280 -116q-153 0 -266 103h-1v1q-5 5 -5 12q0 8 4 12l1 1l77 77q12 12 24 0q72 -62 166 -62q104 0 178 74t74 178t-74 178t-178 74q-95 0 -165 -62l106 -105q8 -8 4 -20q-5 -11 -17 -11h-342q-8 0 -13 5t-5 13v342q0 12 11 17q12 4 20 -4 l134 -135q114 104 267 104q164 0 280 -116t116 -280z"/>
<glyph unicode="↻" horiz-adv-x="864" d="M864 846v-342q0 -8 -5 -13t-13 -5h-342q-12 0 -17 11q-4 12 4 20l106 105q-70 62 -165 62q-104 0 -178 -74t-74 -178t74 -178t178 -74q93 0 166 62q12 12 24 0l77 -77v-1q5 -4 5 -12q0 -7 -5 -12q0 -1 -1 -1q-113 -103 -266 -103q-164 0 -280 116t-116 280t116 280 t280 116q153 0 267 -104l134 135q8 8 20 4q11 -5 11 -17z"/>
<glyph unicode="⇆" horiz-adv-x="864" d="M841 635l-162 -162q-8 -8 -20 -4q-11 5 -11 17v90h-576q-8 0 -13 5t-5 13v108q0 8 5 13t13 5h576v90q0 12 11 17q12 4 20 -4l162 -162q13 -13 0 -26zM810 270v-108q0 -8 -5 -13t-13 -5h-576v-90q0 -12 -11 -17q-12 -4 -20 4l-162 162q-13 13 0 26l162 162q8 8 20 4 q11 -5 11 -17v-90h576q8 0 13 -5t5 -13z"/>
<glyph unicode="⋆" horiz-adv-x="864" d="M859 509l-210 -209l53 -279q2 -12 -8 -18q-4 -3 -10 -3t-10 3l-242 156l-242 -156q-10 -7 -20 0q-10 6 -8 18l53 279l-210 209q-8 8 -4 20q5 11 17 11h276l121 312q5 12 17 12t17 -12l121 -312h276q12 0 17 -11q4 -12 -4 -20z"/>
<glyph unicode="⌂" horiz-adv-x="864" d="M863 425q-5 -11 -17 -11h-90v-396q0 -8 -5 -13t-13 -5h-180q-8 0 -13 5t-5 13v306h-216v-306q0 -8 -5 -13t-13 -5h-180q-8 0 -13 5t-5 13v396h-90q-12 0 -17 11q-3 11 4 20l414 414q13 13 26 0l414 -414q7 -9 4 -20z"/>
<glyph unicode="⌖" horiz-adv-x="864" d="M846 486q8 0 13 -5t5 -13v-72q0 -8 -5 -13t-13 -5h-95q-16 -102 -89.5 -175.5t-175.5 -90.5v-94q0 -8 -5 -13t-13 -5h-72q-8 0 -13 5t-5 13v94q-102 17 -175.5 90.5t-90.5 175.5h-94q-8 0 -13 5t-5 13v72q0 8 5 13t13 5h94q17 102 90.5 175.5t175.5 89.5v95q0 8 5 13 t13 5h72q8 0 13 -5t5 -13v-95q102 -17 175 -90t90 -175h95zM432 216q89 0 152.5 63.5t63.5 152.5t-63.5 152.5t-152.5 63.5t-152.5 -63.5t-63.5 -152.5t63.5 -152.5t152.5 -63.5z"/>
<glyph unicode="⌫" horiz-adv-x="864" d="M810 756q22 0 38 -16t16 -38v-540q0 -22 -16 -38t-38 -16h-502q-6 0 -13 5l-279 281q-16 16 -16 38t16 38l279 281q7 5 13 5h502zM756 288l-144 144l144 144l-72 72l-144 -144l-144 144l-72 -72l144 -144l-144 -144l72 -72l144 144l144 -144z"/>
<glyph unicode="⎙" horiz-adv-x="864" d="M810 864q22 0 38 -16t16 -38v-432q0 -22 -16 -38t-38 -16h-90v180h-576v-180h-90q-22 0 -38 16t-16 38v432q0 22 16 38t38 16h756zM702 648q22 0 38 16t16 38t-16 38t-38 16t-38 -16t-16 -38t16 -38t38 -16zM216 432v-414q0 -8 5 -13t13 -5h396q8 0 13 5t5 13v414h-432z "/>
<glyph unicode="⏏" horiz-adv-x="864" d="M18 0q-8 0 -13 5t-5 13v108q0 8 5 13t13 5h828q8 0 13 -5t5 -13v-108q0 -8 -5 -13t-13 -5h-828zM18 324q-11 0 -16 10q-5 11 2 19l414 504q4 7 14 7q8 0 14 -7l414 -504q4 -4 4 -11q0 -2 -2 -8q-5 -10 -16 -10h-828z"/>
<glyph unicode="⏩" horiz-adv-x="864" d="M864 432q0 -10 -7 -14l-504 -414q-8 -7 -19 -2q-10 5 -10 16v228l-295 -242q-8 -7 -19 -2q-10 5 -10 16v828q0 11 10 16q6 2 8 2q7 0 11 -4l295 -242v228q0 11 10 16q6 2 8 2q7 0 11 -4l504 -414q7 -6 7 -14z"/>
<glyph unicode="⏪" horiz-adv-x="864" d="M0 432q0 8 7 14l504 414q4 4 11 4q2 0 8 -2q10 -5 10 -16v-228l295 242q4 4 11 4q2 0 8 -2q10 -5 10 -16v-828q0 -11 -10 -16q-11 -5 -19 2l-295 242v-228q0 -11 -10 -16q-11 -5 -19 2l-504 414q-7 4 -7 14z"/>
<glyph unicode="⏭" horiz-adv-x="864" d="M666 846q0 8 5 13t13 5h108q8 0 13 -5t5 -13v-828q0 -8 -5 -13t-13 -5h-108q-8 0 -13 5t-5 13v828zM54 846q0 11 10 16q11 5 19 -2l504 -414q7 -6 7 -14q0 -10 -7 -14l-504 -414q-4 -4 -11 -4q-2 0 -8 2q-10 5 -10 16v828z"/>
<glyph unicode="⏮" horiz-adv-x="864" d="M198 846v-828q0 -8 -5 -13t-13 -5h-108q-8 0 -13 5t-5 13v828q0 8 5 13t13 5h108q8 0 13 -5t5 -13zM810 846v-828q0 -11 -10 -16q-6 -2 -8 -2q-7 0 -11 4l-504 414q-7 4 -7 14q0 8 7 14l504 414q8 7 19 2q10 -5 10 -16z"/>
<glyph unicode="⏱" horiz-adv-x="864" d="M805 648l-60 -59q65 -95 65 -211q0 -157 -110.5 -267.5t-267.5 -110.5t-267.5 110.5t-110.5 267.5q0 127 76 227t194 135v106q0 8 5 13t13 5h180q8 0 13 -5t5 -13v-106q58 -17 103 -49l60 59q13 12 25 0l77 -77q13 -13 0 -25zM504 378v270h-72l-70 -254q-2 -10 -2 -16 q0 -30 21 -51t51 -21t51 21t21 51z"/>
<glyph unicode="⏲" horiz-adv-x="864" d="M432 864q179 0 305.5 -126.5t126.5 -305.5t-126.5 -305.5t-305.5 -126.5t-305.5 126.5t-126.5 305.5t126.5 305.5t305.5 126.5zM623 241l51 51l-176 176l-66 288h-72v-324q0 -30 21 -51q4 -4 12 -10z"/>
<glyph unicode="␡" horiz-adv-x="864" d="M806 211q5 -7 5 -13t-5 -13l-127 -127q-7 -5 -13 -5t-13 5l-221 221l-221 -221q-7 -5 -13 -5t-13 5l-127 127q-5 7 -5 13t5 13l221 221l-221 221q-5 7 -5 13t5 13l127 127q7 5 13 5t13 -5l221 -221l221 221q7 5 13 5t13 -5l127 -127q5 -7 5 -13t-5 -13l-221 -221z"/>
<glyph unicode="■" horiz-adv-x="864" d="M864 18q0 -8 -5 -13t-13 -5h-828q-8 0 -13 5t-5 13v828q0 8 5 13t13 5h828q8 0 13 -5t5 -13v-828z"/>
<glyph unicode="▴" horiz-adv-x="864" d="M860 191q7 -8 2 -19q-5 -10 -16 -10h-828q-11 0 -16 10q-5 11 2 19l414 504q4 7 14 7q8 0 14 -7z"/>
<glyph unicode="▶" horiz-adv-x="864" d="M18 0q-5 0 -10 3q-8 5 -8 15v828q0 10 8 15q9 6 18 1l828 -414q10 -5 10 -16t-10 -16l-828 -414q-6 -2 -8 -2z"/>
<glyph unicode="▹" horiz-adv-x="864" d="M191 860l504 -414q7 -6 7 -14q0 -10 -7 -14l-504 -414q-8 -7 -19 -2q-10 5 -10 16v828q0 11 10 16q11 5 19 -2z"/>
<glyph unicode="▻" horiz-adv-x="864" d="M288 864q6 0 13 -5l414 -414q13 -13 0 -26l-414 -414q-13 -13 -26 0l-126 126q-13 13 0 26l275 275l-275 275q-13 13 0 26l126 126q7 5 13 5z"/>
<glyph unicode="▾" horiz-adv-x="864" d="M860 673l-414 -504q-6 -7 -14 -7q-10 0 -14 7l-414 504q-7 8 -2 19q5 10 16 10h828q11 0 16 -10q5 -11 -2 -19z"/>
<glyph unicode="◃" horiz-adv-x="864" d="M673 860q8 7 19 2q10 -5 10 -16v-828q0 -11 -10 -16q-11 -5 -19 2l-504 414q-7 4 -7 14q0 8 7 14z"/>
<glyph unicode="◅" horiz-adv-x="864" d="M576 0q-6 0 -13 5l-414 414q-13 13 0 26l414 414q13 13 26 0l126 -126q13 -13 0 -26l-276 -275l276 -275q13 -13 0 -26l-126 -126q-7 -5 -13 -5z"/>
<glyph unicode="◎" horiz-adv-x="864" d="M432 864q179 0 305.5 -126.5t126.5 -305.5t-126.5 -305.5t-305.5 -126.5t-305.5 126.5t-126.5 305.5t126.5 305.5t305.5 126.5zM432 144q119 0 203.5 84.5t84.5 203.5t-84.5 203.5t-203.5 84.5t-203.5 -84.5t-84.5 -203.5t84.5 -203.5t203.5 -84.5zM288 432 q0 -60 42 -102t102 -42q59 0 101.5 42t42.5 102q0 59 -42.5 101.5t-101.5 42.5q-60 0 -102 -42.5t-42 -101.5z"/>
<glyph unicode="●" horiz-adv-x="864" d="M864 432q0 -179 -126.5 -305.5t-305.5 -126.5t-305.5 126.5t-126.5 305.5t126.5 305.5t305.5 126.5t305.5 -126.5t126.5 -305.5z"/>
<glyph unicode="☁" horiz-adv-x="864" d="M864 324q0 -89 -63.5 -152.5t-152.5 -63.5h-459q-78 0 -133.5 55.5t-55.5 133.5q0 71 46.5 124t115.5 63v2q0 112 79 191t191 79q99 0 174 -63.5t92 -158.5q72 -17 119 -75.5t47 -134.5z"/>
<glyph unicode="♥" horiz-adv-x="864" d="M744 357l-299 -300q-7 -5 -13 -5q-8 0 -13 5l-299 300q-70 70 -99.5 142t-18 133t57.5 107q68 68 165 68t165 -68q25 -25 42 -56q17 31 42 56q68 69 165 69t166 -69q46 -46 57 -107t-18.5 -133t-99.5 -142z"/>
<glyph unicode="♫" horiz-adv-x="864" d="M864 820v-496q0 -79 -54.5 -137.5t-134.5 -73.5q-78 -16 -133.5 15.5t-55.5 91.5t56 115.5t133 70.5q42 8 73 8h26v216l-396 -90v-324q0 -79 -54.5 -137.5t-134.5 -73.5q-78 -16 -133.5 15.5t-55.5 91.5t56 115.5t133 70.5q42 8 73 8h26v388q0 22 15.5 41.5t37.5 24.5 l470 103q22 5 37.5 -8t15.5 -35z"/>
<glyph unicode="⚑" horiz-adv-x="864" d="M756 798v-392q0 -9 -10 -16q-57 -30 -125 -30q-61 0 -189 36t-189 36q-5 0 -14 -0.5t-13 -0.5v-413q0 -8 -5 -13t-13 -5h-72q-8 0 -13 5t-5 13v800q0 10 9 15q56 31 126 31q61 0 189 -36t189 -36q60 0 110 23q10 4 17 -2q8 -5 8 -15z"/>
<glyph unicode="⚙" horiz-adv-x="864" d="M752 382l83 -72q10 -7 5 -19q-25 -77 -82 -142q-8 -10 -19 -5l-104 36q-40 -32 -86 -50l-21 -108q-2 -12 -14 -14q-43 -8 -82 -8t-82 8q-12 2 -14 14l-21 108q-49 19 -86 50l-104 -36q-11 -5 -19 5q-57 65 -82 142q-5 12 5 19l83 72q-4 21 -4 50t4 50l-83 72q-10 7 -5 19 q25 77 82 142q8 10 19 5l104 -36q37 31 86 50l21 108q2 12 14 14q82 17 164 0q12 -2 14 -14l21 -108q46 -18 86 -50l104 36q11 5 19 -5q57 -65 82 -142q5 -12 -5 -19l-83 -72q4 -21 4 -50t-4 -50zM432 270q67 0 114.5 47.5t47.5 114.5t-47.5 114.5t-114.5 47.5t-114.5 -47.5 t-47.5 -114.5q0 -68 47 -115t115 -47z"/>
<glyph unicode="⚠" horiz-adv-x="864" d="M854 130q23 -45 -3 -87q-27 -43 -77 -43h-684q-50 0 -77 43q-25 41 -4 87l342 684q26 50 81 50q56 0 80 -50zM378 630v-306h108v306h-108zM432 90q30 0 51 21t21 51t-21 51t-51 21t-51 -21t-21 -51t21 -51t51 -21z"/>
<glyph unicode="⛔" horiz-adv-x="864" d="M432 864q179 0 305.5 -126.5t126.5 -305.5t-126.5 -305.5t-305.5 -126.5t-305.5 126.5t-126.5 305.5t126.5 305.5t305.5 126.5zM108 324h648v216h-648v-216z"/>
<glyph unicode="✉" horiz-adv-x="864" d="M432 378l-432 324q0 22 16 38t38 16h756q22 0 38 -16t16 -38zM432 281l432 324v-443q0 -22 -16 -38t-38 -16h-756q-22 0 -38 16t-16 38v443z"/>
<glyph unicode="✎" horiz-adv-x="864" d="M702 540l-162 162l-445 -445q-2 -2 -4 -6l-90 -226q-4 -12 4 -20q7 -5 13 -5q4 0 7 1l226 90q4 2 6 4zM848 763q16 -17 16 -39t-16 -38l-92 -92l-162 162l92 92q16 16 38 16t39 -16z"/>
<glyph unicode="✐" horiz-adv-x="864" d="M162 324l445 445q3 3 6 4l226 90q2 1 7 1q6 0 13 -5q8 -8 4 -20l-90 -226q-1 -3 -4 -6l-445 -445zM16 101q-16 16 -16 38.5t16 38.5l92 92l162 -162l-92 -92q-16 -16 -38.5 -16t-38.5 16z"/>
<glyph unicode="✓" horiz-adv-x="864" d="M859 617l-522 -522q-7 -5 -13 -5t-13 5l-306 306q-13 13 0 26l126 126q13 13 26 0l167 -168l383 384q13 13 26 0l126 -126q13 -13 0 -26z"/>
<glyph unicode="❓" horiz-adv-x="864" d="M432 864q178 0 305 -127t127 -305q0 -179 -126.5 -305.5t-305.5 -126.5t-305.5 126.5t-126.5 305.5t126.5 305.5t305.5 126.5zM432 108q30 0 51 21t21 51t-21 51t-51 21t-51 -21t-21 -51t21 -51t51 -21zM486 360q0 14 15 27t36 25.5t42 29t36 46.5t15 70q0 79 -57 129.5 t-141 50.5q-48 0 -93 -22.5t-66 -45.5l-21 -22l72 -72q6 6 16.5 15t39 24t52.5 15q39 0 64.5 -22t25.5 -50q0 -24 -22.5 -43.5t-49.5 -33t-49.5 -40.5t-22.5 -63v-36h108v18z"/>
<glyph unicode="➡" horiz-adv-x="864" d="M463 841l396 -396q5 -7 5 -13t-5 -13l-396 -396q-8 -8 -20 -4q-11 5 -11 17v234h-414q-8 0 -13 5t-5 13v288q0 8 5 13t13 5h414v234q0 12 11 17q12 4 20 -4z"/>
<glyph unicode="⤢" horiz-adv-x="864" d="M457 305l-152 -153l121 -121q6 -4 6 -13q0 -8 -5 -13t-13 -5h-396q-8 0 -13 5t-5 13v396q0 12 11 17q12 4 20 -4l121 -122l153 152q13 13 25 0l127 -127q6 -4 6 -13q0 -7 -6 -12zM864 846v-396q0 -12 -11 -17q-2 -1 -7 -1q-6 0 -13 5l-121 122l-153 -153q-5 -5 -12 -5 q-8 0 -13 5l-128 128q-12 12 0 25l153 153l-122 121q-8 8 -4 20q5 11 17 11h396q8 0 13 -5t5 -13z"/>
<glyph unicode="⬅" horiz-adv-x="864" d="M401 23l-396 396q-5 7 -5 13t5 13l396 396q8 8 20 4q11 -5 11 -17v-234h414q8 0 13 -5t5 -13v-288q0 -8 -5 -13t-13 -5h-414v-234q0 -12 -11 -17q-12 -4 -20 4z"/>
<glyph unicode="⬆" horiz-adv-x="864" d="M23 463l396 396q7 5 13 5t13 -5l396 -396q8 -8 4 -20q-5 -11 -17 -11h-234v-414q0 -8 -5 -13t-13 -5h-288q-8 0 -13 5t-5 13v414h-234q-12 0 -17 11q-4 12 4 20z"/>
<glyph unicode="⬇" horiz-adv-x="864" d="M841 401l-396 -396q-7 -5 -13 -5t-13 5l-396 396q-8 8 -4 20q5 11 17 11h234v414q0 8 5 13t13 5h288q8 0 13 -5t5 -13v-414h234q12 0 17 -11q4 -12 -4 -20z"/>
<glyph unicode="⬈" horiz-adv-x="864" d="M113 337l312 311l-186 185q-8 8 -4 20q5 11 17 11h594q8 0 13 -5t5 -13v-594q0 -12 -11 -17q-12 -4 -20 4l-185 186l-311 -312q-13 -13 -26 0l-198 198q-13 13 0 26z"/>
<glyph unicode="⬉" horiz-adv-x="864" d="M751 337q13 -13 0 -26l-198 -198q-13 -13 -26 0l-311 312l-185 -186q-8 -8 -20 -4q-11 5 -11 17v594q0 8 5 13t13 5h594q12 0 17 -11q4 -12 -4 -20l-186 -185z"/>
<glyph unicode="⬊" horiz-adv-x="864" d="M113 527q-13 13 0 26l198 198q13 13 26 0l311 -312l185 186q8 8 20 4q11 -5 11 -17v-594q0 -8 -5 -13t-13 -5h-594q-12 0 -17 11q-4 12 4 20l186 185z"/>
<glyph unicode="⬋" horiz-adv-x="864" d="M751 527l-312 -311l186 -185q8 -8 4 -20q-5 -11 -17 -11h-594q-8 0 -13 5t-5 13v594q0 12 11 17q12 4 20 -4l185 -186l311 312q13 13 26 0l198 -198q13 -13 0 -26z"/>
<glyph unicode="" horiz-adv-x="864" d="M701 335q-5 -11 -17 -11h-225l126 -257q9 -16 -8 -24l-81 -41q-16 -9 -24 8l-125 258l-154 -155q-7 -5 -13 -5q-5 0 -7 1q-11 5 -11 17v720q0 12 11 17q12 4 20 -4l504 -504q8 -8 4 -20z"/>
<glyph unicode="" horiz-adv-x="864" d="M540 864q134 0 229 -95t95 -229t-95 -229t-229 -95q-95 0 -173 50l-244 -245q-21 -21 -51 -21t-51 21t-21 51t21 51l245 244q-50 78 -50 173q0 134 95 229t229 95zM720 486v108h-126v126h-108v-126h-126v-108h126v-126h108v126h126z"/>
<glyph unicode="" horiz-adv-x="864" d="M540 864q134 0 229 -95t95 -229t-95 -229t-229 -95q-95 0 -173 50l-244 -245q-21 -21 -51 -21t-51 21t-21 51t21 51l245 244q-50 78 -50 173q0 134 95 229t229 95zM720 594h-360v-108h360v108z"/>
<glyph unicode="" horiz-adv-x="864" d="M859 419l-162 -162q-7 -5 -13 -5q-5 0 -7 1q-11 5 -11 17v90h-162v-162h90q12 0 17 -11q4 -12 -4 -20l-162 -162q-7 -5 -13 -5t-13 5l-162 162q-8 8 -4 20q5 11 17 11h90v162h-162v-90q0 -12 -11 -17q-2 -1 -7 -1q-6 0 -13 5l-162 162q-13 13 0 26l162 162q8 8 20 4 q11 -5 11 -17v-90h162v162h-90q-12 0 -17 11q-4 12 4 20l162 162q13 13 26 0l162 -162q8 -8 4 -20q-5 -11 -17 -11h-90v-162h162v90q0 12 11 17q12 4 20 -4l162 -162q13 -13 0 -26z"/>
<glyph unicode="" horiz-adv-x="864" d="M261 423l-166 -166q-2 -2 -4 -6l-90 -226q-4 -12 4 -20q7 -5 13 -5q4 0 7 1l226 90q4 2 6 4l166 166zM795 69q15 15 15 36.5t-15 37.5l-245 245l152 152l-162 162l-152 -152l-246 246q-16 15 -37.5 15t-36.5 -15q-15 -16 -15 -37.5t15 -36.5l653 -653q15 -15 37 -15 t37 15zM848 763q16 -17 16 -39t-16 -38l-92 -92l-162 162l92 92q16 16 38 16t39 -16z"/>
<glyph unicode="" horiz-adv-x="864" d="M810 864q8 0 13 -5t5 -13v-72q0 -8 -5 -13t-13 -5h-756q-8 0 -13 5t-5 13v72q0 8 5 13t13 5h756zM108 684h648l-54 -668q-2 -16 -18 -16h-504q-16 0 -18 16z"/>
<glyph unicode="" horiz-adv-x="864" d="M16 317q-16 16 -16 38.5t16 38.5l465 465q5 5 12 5h317q22 0 38 -16t16 -38v-317q0 -7 -5 -12l-465 -465q-16 -16 -38.5 -16t-38.5 16zM594 675q0 -34 23.5 -57.5t57.5 -23.5t57.5 23.5t23.5 57.5t-23.5 57.5t-57.5 23.5t-57.5 -23.5t-23.5 -57.5z"/>
<glyph unicode="" horiz-adv-x="432" d="M432 52q-8 0 -13 5l-299 300q-70 70 -99.5 142t-18 133t57.5 107q68 68 165 68t165 -68q25 -25 42 -56v-631z"/>
<glyph unicode="" horiz-adv-x="432" d="M432 159l-242 -156q-10 -7 -20 0q-10 6 -8 18l53 279l-210 209q-8 8 -4 20q5 11 17 11h276l121 312q5 12 17 12v-705z"/>
<glyph unicode="" horiz-adv-x="864" d="M504 360l-144 144l-288 -288q-18 -18 -18 -54t-18 -54l-31 -31q-13 -13 0 -25l47 -47q12 -13 25 0l30 31l1 1q18 17 54 17t54 18zM468 648l179 179q37 37 89.5 37t90.5 -37q37 -38 37 -90.5t-37 -89.5l-179 -179l49 -48q13 -13 0 -26l-48 -47q-13 -13 -25 0l-277 277 q-13 12 0 25l47 48q13 13 26 0z"/>
<glyph unicode="" horiz-adv-x="864" d="M702 90h-144v-72q0 -8 5 -13t13 -5h108q8 0 13 5t5 13v72zM18 702q-8 0 -13 -5t-5 -13v-108q0 -8 5 -13t13 -5h72v144h-72zM846 306q8 0 13 -5t5 -13v-108q0 -8 -5 -13t-13 -5h-666q-8 0 -13 5t-5 13v666q0 8 5 13t13 5h108q8 0 13 -5t5 -13v-144h378q8 0 13 -5t5 -13 v-378h144zM306 306h252v252h-252v-252z"/>
<glyph unicode="" horiz-adv-x="864" d="M648 702v-90h-396q-45 0 -76.5 -31.5t-31.5 -76.5v-234h-90q-22 0 -38 16t-16 38v378q0 22 16 38t38 16h540q22 0 38 -16t16 -38zM864 486v-324q0 -22 -16 -38t-38 -16h-540q-22 0 -38 16t-16 38v342q0 15 10.5 25.5t25.5 10.5h558q22 0 38 -16t16 -38z"/>
<glyph unicode="" horiz-adv-x="864" d="M846 864q8 0 13 -5t5 -13v-504q0 -8 -5 -13t-13 -5h-234v108h144v324h-324v-144h-108v234q0 8 5 13t13 5h504zM522 0q8 0 13 5t5 13v504q0 8 -5 13t-13 5h-504q-8 0 -13 -5t-5 -13v-504q0 -8 5 -13t13 -5h504z"/>
<glyph unicode="" horiz-adv-x="864" d="M864 846v-504q0 -8 -5 -13t-13 -5h-234v252q0 15 -10.5 25.5t-25.5 10.5h-252v234q0 8 5 13t13 5h504q8 0 13 -5t5 -13zM522 540q8 0 13 -5t5 -13v-504q0 -8 -5 -13t-13 -5h-504q-8 0 -13 5t-5 13v504q0 8 5 13t13 5h504zM108 108h324v324h-324v-324z"/>
<glyph unicode="" horiz-adv-x="864" d="M487 143q-171 -117 -377 -142q-3 -1 -7 -1q-5 0 -7 1q-6 3 -10 10l-85 214q-5 16 9 23l236 118q10 6 21 -3zM864 761q0 -4 -1 -7q-36 -288 -238 -496l170 -169q15 -16 15 -37.5t-15 -36.5t-37 -15t-37 15l-653 653q-15 15 -15 36.5t15 37.5q15 15 36.5 15t37.5 -15 l380 -381q53 55 94 121l-115 115q-9 11 -3 21l118 236q7 14 23 9l214 -85q7 -4 9 -10q2 -4 2 -7z"/>
<glyph unicode="" horiz-adv-x="864" d="M270 135q0 -56 -39.5 -95.5t-95.5 -39.5t-95.5 39.5t-39.5 95.5t39.5 95.5t95.5 39.5t95.5 -39.5t39.5 -95.5zM864 18q0 -8 -5 -13t-13 -5h-126q-8 0 -13 5t-5 13q0 139 -54 266t-145.5 218.5t-218.5 145.5t-266 54q-8 0 -13 5t-5 13v126q0 8 5 13t13 5 q230 0 424.5 -113.5t308 -308t113.5 -424.5zM594 18q0 -8 -5 -13t-13 -5h-126q-8 0 -13 5t-5 13q0 172 -121 293t-293 121q-8 0 -13 5t-5 13v126q0 8 5 13t13 5q117 0 223.5 -45.5t184 -123t123 -184t45.5 -223.5z"/>
<glyph unicode="" horiz-adv-x="864" d="M486 702q22 0 38 -16t16 -38v-432q0 -22 -16 -38t-38 -16h-432q-22 0 -38 16t-16 38v432q0 22 16 38t38 16h432zM864 684v-504q0 -12 -11 -17q-2 -1 -7 -1q-6 0 -13 5l-226 227q-16 16 -16 38t16 38l226 227q8 8 20 4q11 -5 11 -17z"/>
<glyph unicode="" horiz-adv-x="864" d="M864 844l-108 -828q-2 -10 -10 -14q-8 -5 -16 0l-275 137l-99 -132q-5 -7 -14 -7q-4 0 -6 1q-12 3 -12 17v180q0 7 4 11l393 506l-511 -441q-5 -4 -12 -4q-4 0 -8 2l-180 90q-10 5 -10 15q0 11 9 17l828 468q10 5 19 -1q10 -6 8 -17z"/>
<glyph unicode="" horiz-adv-x="864" d="M432 810q179 0 305.5 -102.5t126.5 -248.5t-126.5 -248.5t-305.5 -102.5q-35 0 -73 5q-113 -113 -233 -113q-12 0 -17 11q-4 12 4 20q6 6 15.5 18t27 49t22.5 77q-83 49 -130.5 123.5t-47.5 160.5q0 146 126.5 248.5t305.5 102.5zM216 396q30 0 51 21t21 51t-21 51 t-51 21t-51 -21t-21 -51t21 -51t51 -21zM432 396q30 0 51 21t21 51t-21 51t-51 21t-51 -21t-21 -51t21 -51t51 -21zM648 396q30 0 51 21t21 51t-21 51t-51 21t-51 -21t-21 -51t21 -51t51 -21z"/>
<glyph unicode="" horiz-adv-x="864" d="M252 90q0 38 26 64t64 26t64 -26t26 -64t-26 -64t-64 -26t-64 26t-26 64zM540 90q0 38 26 64t64 26t64 -26t26 -64t-26 -64t-64 -26t-64 26t-26 64zM863 680l-110 -369q-5 -18 -19 -29.5t-33 -11.5h-431q-19 0 -33.5 11.5t-18.5 29.5l-110 445h-54q-22 0 -38 16t-16 38 t16 38t38 16h96q19 0 34 -11.5t19 -29.5l30 -121h613q9 0 14 -7q6 -6 3 -15z"/>
<glyph unicode="" horiz-adv-x="864" d="M756 378q0 -157 -110.5 -267.5t-267.5 -110.5t-267.5 110.5t-110.5 267.5t110.5 267.5t267.5 110.5v-378h378zM864 468q0 -8 -5 -13t-13 -5h-396v396q0 8 5 13t13 5q164 0 280 -116t116 -280z"/>
<glyph unicode="" horiz-adv-x="864" d="M864 684v-666q0 -8 -5 -13t-13 -5h-828q-8 0 -13 5t-5 13v828q0 8 5 13t13 5h162q8 0 13 -5t5 -13v-356l314 209q8 7 18 1q10 -5 10 -16v-182l296 197q8 7 18 1q10 -5 10 -16z"/>
<glyph unicode="" horiz-adv-x="864" d="M450 0h-4q-14 4 -14 18v414h-414q-14 0 -18 14q-2 15 10 20l828 396q11 5 21 -3q8 -10 3 -21l-396 -828q-5 -10 -16 -10z"/>
<glyph unicode="" horiz-adv-x="864" d="M748 3q-4 -3 -10 -3q-8 0 -12 4l-294 266l-294 -266q-11 -9 -22 -1q-12 8 -7 21l306 828q5 12 17 12t17 -12l306 -828q5 -13 -7 -21z"/>
<glyph unicode="" horiz-adv-x="864" d="M859 311l-90 -90q-7 -5 -13 -5h-684q-8 0 -13 5t-5 13v180q0 8 5 13t13 5h288v90h144v-90h252q6 0 13 -5l90 -90q13 -13 0 -26zM810 792v-180q0 -8 -5 -13t-13 -5h-684q-6 0 -13 5l-90 90q-13 13 0 26l90 90q7 5 13 5h252v36q0 8 5 13t13 5h108q8 0 13 -5t5 -13v-36h288 q8 0 13 -5t5 -13zM504 144v-126q0 -8 -5 -13t-13 -5h-108q-8 0 -13 5t-5 13v126h144z"/>
<glyph unicode="" horiz-adv-x="864" d="M856 769q8 -5 8 -14v-612q0 -14 -13 -17l-270 -89q-1 -1 -5 -1q-5 0 -7 1l-282 105l-264 -88q-8 -3 -16 2q-7 7 -7 15v394q11 9 38 25l-38 62v131q0 12 12 17l270 91q6 1 12 0l282 -107l264 88q10 3 16 -3zM97 521q49 20 96 29l-13 71q-59 -11 -111 -34zM357 548l16 70 q-58 12 -116 11l2 -72q51 0 98 -9zM505 480l44 57q-48 37 -102 58l-27 -66q49 -21 85 -49zM554 436q17 -19 31.5 -38.5t20 -29.5t5.5 -11l33 16l32 15q-25 50 -69 97zM702 179q30 0 51 21t21 51t-21 51t-51 21t-51 -21t-21 -51t21 -51t51 -21z"/>
<glyph unicode="" horiz-adv-x="864" d="M432 864q119 0 203.5 -84.5t84.5 -203.5q0 -75 -37 -141l-235 -426q-5 -9 -16 -9t-16 9l-235 426q-37 63 -37 141q0 119 84.5 203.5t203.5 84.5zM432 468q45 0 76.5 31.5t31.5 76.5t-31.5 76.5t-76.5 31.5t-76.5 -31.5t-31.5 -76.5t31.5 -76.5t76.5 -31.5z"/>
<glyph unicode="" horiz-adv-x="864" d="M756 252v-126q0 -47 -97 -86.5t-227 -39.5t-227 39.5t-97 86.5v126q113 -72 324 -72t324 72zM756 504v-144q0 -45 -95 -76.5t-229 -31.5t-229 31.5t-95 76.5v144q113 -72 324 -72t324 72zM756 756v-144q0 -45 -95 -76.5t-229 -31.5t-229 31.5t-95 76.5v144q0 45 95 76.5 t229 31.5t229 -31.5t95 -76.5z"/>
<glyph unicode="" horiz-adv-x="864" d="M810 324q22 0 38 -16t16 -38v-216q0 -22 -16 -38t-38 -16h-756q-22 0 -38 16t-16 38v216q0 22 16 38t38 16h756zM486 108q22 0 38 16t16 38t-16 38t-38 16t-38 -16t-16 -38t16 -38t38 -16zM702 108q22 0 38 16t16 38t-16 38t-38 16t-38 -16t-16 -38t16 -38t38 -16z M791 818l64 -430q-22 8 -45 8h-756q-23 0 -45 -8l63 430q3 20 18.5 33t35.5 13h612q20 0 35 -13t18 -33z"/>
<glyph unicode="" horiz-adv-x="864" d="M810 810q22 0 38 -16t16 -38v-540q0 -22 -16 -38t-38 -16h-89l-108 108h143v432h-648v-432h143l-108 -108h-89q-22 0 -38 16t-16 38v540q0 22 16 38t38 16h756zM684 54q12 0 17 11q4 12 -4 20l-252 252q-13 13 -26 0l-252 -252q-8 -8 -4 -20q5 -11 17 -11h504z"/>
<glyph unicode="" horiz-adv-x="864" d="M306 0h-288q-8 0 -13 5t-5 13v828q0 8 5 13t13 5h288q8 0 13 -5t5 -13v-828q0 -8 -5 -13t-13 -5zM846 0h-288q-8 0 -13 5t-5 13v828q0 8 5 13t13 5h288q8 0 13 -5t5 -13v-828q0 -8 -5 -13t-13 -5z"/>
<glyph unicode="" horiz-adv-x="864" d="M0 846q0 8 5 13t13 5h180q8 0 13 -5t5 -13v-180q0 -8 -5 -13t-13 -5h-180q-8 0 -13 5t-5 13v180zM324 846q0 8 5 13t13 5h180q8 0 13 -5t5 -13v-180q0 -8 -5 -13t-13 -5h-180q-8 0 -13 5t-5 13v180zM648 846q0 8 5 13t13 5h180q8 0 13 -5t5 -13v-180q0 -8 -5 -13t-13 -5 h-180q-8 0 -13 5t-5 13v180zM0 522q0 8 5 13t13 5h180q8 0 13 -5t5 -13v-180q0 -8 -5 -13t-13 -5h-180q-8 0 -13 5t-5 13v180zM324 522q0 8 5 13t13 5h180q8 0 13 -5t5 -13v-180q0 -8 -5 -13t-13 -5h-180q-8 0 -13 5t-5 13v180zM648 522q0 8 5 13t13 5h180q8 0 13 -5t5 -13 v-180q0 -8 -5 -13t-13 -5h-180q-8 0 -13 5t-5 13v180zM0 198q0 8 5 13t13 5h180q8 0 13 -5t5 -13v-180q0 -8 -5 -13t-13 -5h-180q-8 0 -13 5t-5 13v180zM324 198q0 8 5 13t13 5h180q8 0 13 -5t5 -13v-180q0 -8 -5 -13t-13 -5h-180q-8 0 -13 5t-5 13v180zM648 198q0 8 5 13 t13 5h180q8 0 13 -5t5 -13v-180q0 -8 -5 -13t-13 -5h-180q-8 0 -13 5t-5 13v180z"/>
<glyph unicode="" horiz-adv-x="864" d="M864 522v-180q0 -8 -5 -13t-13 -5h-828q-8 0 -13 5t-5 13v180q0 8 5 13t13 5h828q8 0 13 -5t5 -13zM864 846v-180q0 -8 -5 -13t-13 -5h-828q-8 0 -13 5t-5 13v180q0 8 5 13t13 5h828q8 0 13 -5t5 -13zM864 198v-180q0 -8 -5 -13t-13 -5h-828q-8 0 -13 5t-5 13v180 q0 8 5 13t13 5h828q8 0 13 -5t5 -13z"/>
<glyph unicode="" horiz-adv-x="864" d="M342 864h180q8 0 13 -5t5 -13v-828q0 -8 -5 -13t-13 -5h-180q-8 0 -13 5t-5 13v828q0 8 5 13t13 5zM18 864h180q8 0 13 -5t5 -13v-828q0 -8 -5 -13t-13 -5h-180q-8 0 -13 5t-5 13v828q0 8 5 13t13 5zM666 864h180q8 0 13 -5t5 -13v-828q0 -8 -5 -13t-13 -5h-180 q-8 0 -13 5t-5 13v828q0 8 5 13t13 5z"/>
<glyph unicode="" horiz-adv-x="864" d="M360 486h-342q-8 0 -13 5t-5 13v342q0 8 5 13t13 5h342q8 0 13 -5t5 -13v-342q0 -8 -5 -13t-13 -5zM846 486h-342q-8 0 -13 5t-5 13v342q0 8 5 13t13 5h342q8 0 13 -5t5 -13v-342q0 -8 -5 -13t-13 -5zM360 0h-342q-8 0 -13 5t-5 13v342q0 8 5 13t13 5h342q8 0 13 -5 t5 -13v-342q0 -8 -5 -13t-13 -5zM846 0h-342q-8 0 -13 5t-5 13v342q0 8 5 13t13 5h342q8 0 13 -5t5 -13v-342q0 -8 -5 -13t-13 -5z"/>
<glyph unicode="" horiz-adv-x="864" d="M855 780l-315 -465v-297q0 -8 -5 -13t-13 -5h-180q-8 0 -13 5t-5 13v297l-315 465q-18 26 -3 55q16 29 48 29h756q32 0 48 -29q15 -29 -3 -55z"/>
<glyph unicode="" horiz-adv-x="864" d="M861 166q3 -3 3 -10v-84q0 -8 -5 -13t-13 -5h-828q-8 0 -13 5t-5 13v84q0 7 3 10l51 77v513q0 22 16 38t38 16h648q22 0 38 -16t16 -38v-513zM162 702v-432h540v432h-540z"/>
<glyph unicode="" horiz-adv-x="864" d="M702 864q22 0 38 -16t16 -38v-756q0 -22 -16 -38t-38 -16h-540q-22 0 -38 16t-16 38v756q0 22 16 38t38 16h540zM648 108v648h-432v-648h432z"/>
<glyph unicode="" horiz-adv-x="864" d="M540 648v-432h-486q-22 0 -38 16t-16 38v324q0 22 16 38t38 16h486zM864 522v-180q0 -8 -5 -13t-13 -5h-90v-54q0 -22 -16 -38t-38 -16h-54v432h54q22 0 38 -16t16 -38v-54h90q8 0 13 -5t5 -13z"/>
<glyph unicode="" horiz-adv-x="864" d="M378 648v-432h-324q-22 0 -38 16t-16 38v324q0 22 16 38t38 16h324zM864 522v-180q0 -8 -5 -13t-13 -5h-90v-54q0 -22 -16 -38t-38 -16h-54v432h54q22 0 38 -16t16 -38v-54h90q8 0 13 -5t5 -13z"/>
<glyph unicode="" horiz-adv-x="864" d="M216 648v-432h-162q-22 0 -38 16t-16 38v324q0 22 16 38t38 16h162zM864 522v-180q0 -8 -5 -13t-13 -5h-90v-54q0 -22 -16 -38t-38 -16h-54v432h54q22 0 38 -16t16 -38v-54h90q8 0 13 -5t5 -13z"/>
<glyph unicode="" horiz-adv-x="864" d="M108 648v-432h-54q-22 0 -38 16t-16 38v324q0 22 16 38t38 16h54zM864 522v-180q0 -8 -5 -13t-13 -5h-90v-54q0 -22 -16 -38t-38 -16h-54v432h54q22 0 38 -16t16 -38v-54h90q8 0 13 -5t5 -13z"/>
<glyph unicode="" horiz-adv-x="864" d="M864 324q0 -89 -63.5 -152.5t-152.5 -63.5h-182l186 185q8 8 4 20q-5 11 -17 11h-135v182h-144v-182h-135q-12 0 -17 -11q-4 -12 4 -20l186 -185h-209q-78 0 -133.5 55.5t-55.5 133.5q0 71 46.5 124t115.5 63v2q0 112 79 191t191 79q99 0 174 -63.5t92 -158.5 q72 -17 119 -75.5t47 -134.5z"/>
<glyph unicode="" horiz-adv-x="864" d="M792 0h-720q-8 0 -13 5t-5 13v108q0 8 5 13t13 5h720q8 0 13 -5t5 -13v-108q0 -8 -5 -13t-13 -5zM805 581l-360 -360q-7 -5 -13 -5t-13 5l-360 360q-8 8 -4 20q5 11 17 11h198v234q0 8 5 13t13 5h288q8 0 13 -5t5 -13v-234h198q12 0 17 -11q4 -12 -4 -20z"/>
<glyph unicode="" horiz-adv-x="864" d="M864 324q0 -89 -63.5 -152.5t-152.5 -63.5h-144v162h135q12 0 17 11q4 12 -4 20l-220 219l-220 -219q-8 -8 -4 -20q5 -11 17 -11h135v-162h-171q-78 0 -133.5 55.5t-55.5 133.5q0 71 46.5 124t115.5 63v2q0 112 79 191t191 79q99 0 174 -63.5t92 -158.5q72 -17 119 -75.5 t47 -134.5z"/>
<glyph unicode="" horiz-adv-x="864" d="M792 0h-720q-8 0 -13 5t-5 13v108q0 8 5 13t13 5h720q8 0 13 -5t5 -13v-108q0 -8 -5 -13t-13 -5zM59 499l360 360q7 5 13 5t13 -5l360 -360q8 -8 4 -20q-5 -11 -17 -11h-198v-234q0 -8 -5 -13t-13 -5h-288q-8 0 -13 5t-5 13v234h-198q-12 0 -17 11q-4 12 4 20z"/>
<glyph unicode="" horiz-adv-x="864" d="M697 823l162 -162q5 -7 5 -13t-5 -13l-162 -162q-8 -8 -20 -4q-11 5 -11 17v90h-171q-27 0 -43 -22l-92 -122l92 -122q16 -22 43 -22h171v90q0 12 11 17q12 4 20 -4l162 -162q5 -7 5 -13t-5 -13l-162 -162q-8 -8 -20 -4q-11 5 -11 17v90h-172q-98 0 -157 78l-87 116 q-16 22 -43 22h-189q-8 0 -13 5t-5 13v108q0 8 5 13t13 5h189q27 0 43 22l87 116q59 78 157 78h172v90q0 12 11 17q12 4 20 -4z"/>
<glyph unicode="" horiz-adv-x="864" d="M859 419l-162 -162q-7 -5 -13 -5q-5 0 -7 1q-11 5 -11 17v90h-135q-27 0 -43 -22l-87 -116q-59 -78 -157 -78h-226q-8 0 -13 5t-5 13v108q0 8 5 13t13 5h225q27 0 43 22l87 116q1 1 2.5 3t2.5 3q-1 1 -2.5 3t-2.5 3l-87 116q-16 22 -43 22h-225q-8 0 -13 5t-5 13v108 q0 8 5 13t13 5h226q98 0 157 -78l87 -116q16 -22 43 -22h135v90q0 12 11 17q12 4 20 -4l162 -162q13 -13 0 -26z"/>
<glyph unicode="" horiz-adv-x="864" d="M821 357v0q-27 -139 -136.5 -230t-252.5 -91q-153 0 -267 104l-134 -135q-7 -5 -13 -5q-5 0 -7 1q-11 5 -11 17v342q0 8 5 13t13 5h342q12 0 17 -11q4 -12 -4 -20l-106 -105q70 -62 165 -62q86 0 153 52t90 133q3 13 17 13h111q10 0 14 -7q5 -7 4 -14zM43 507v0 q26 138 135.5 229.5t253.5 91.5q153 0 267 -104l134 135q7 5 13 5q5 0 7 -1q11 -5 11 -17v-342q0 -8 -5 -13t-13 -5h-342q-12 0 -17 11q-4 12 4 20l106 105q-70 62 -165 62q-86 0 -153 -52t-90 -133q-3 -13 -17 -13h-111q-9 0 -14 6q-5 9 -4 15z"/>
<glyph unicode="" horiz-adv-x="864" d="M504 792v-126q0 -30 -21 -51t-51 -21t-51 21t-21 51v126q0 30 21 51t51 21t51 -21t21 -51zM504 198v-126q0 -30 -21 -51t-51 -21t-51 21t-21 51v126q0 30 21 51t51 21t51 -21t21 -51zM270 432q0 -30 -21 -51t-51 -21h-126q-30 0 -51 21t-21 51t21 51t51 21h126 q30 0 51 -21t21 -51zM864 432q0 -30 -21 -51t-51 -21h-126q-30 0 -51 21t-21 51t21 51t51 21h126q30 0 51 -21t21 -51zM317 547q-21 -22 -50.5 -22t-50.5 22l-90 89q-21 21 -21 50.5t21 50.5q22 22 51.5 22t50.5 -22l89 -89q22 -21 22 -50.5t-22 -50.5zM737 126 q-21 -21 -50.5 -21t-50.5 21l-89 90q-22 21 -22 50.5t22 50.5q21 22 50.5 22t50.5 -22l89 -89q22 -21 22 -50.5t-22 -51.5zM737 636l-89 -89q-21 -22 -50.5 -22t-50.5 22q-22 21 -22 50.5t22 50.5l89 89q21 22 50.5 22t50.5 -22q22 -21 22 -50.5t-22 -50.5zM317 216l-89 -90 q-21 -21 -50.5 -21t-51.5 21q-21 22 -21 51.5t21 50.5l90 89q21 22 50.5 22t50.5 -22q22 -21 22 -50.5t-22 -50.5z"/>
<glyph unicode="" horiz-adv-x="864" d="M858 536l-76 -76q-2 -2 -6 -4t-7 -2q-7 0 -12 6q-135 134 -325 134t-325 -134q-4 -6 -12 -6q-3 0 -7 2t-6 4l-76 76q-12 12 0 25q116 116 271 157.5t310 0t271 -157.5q12 -13 0 -25zM693 370l-76 -76q-2 -2 -6 -4q-2 -1 -7 -1q-8 0 -13 5q-66 66 -159 66t-159 -66 q-7 -5 -13 -5q-5 0 -7 1q-4 2 -6 4l-76 76q-13 13 0 26q108 108 261 108t261 -108q13 -13 0 -26zM527 205l-82 -83q-13 -13 -26 0l-83 83q-12 13 0 25q40 40 96 40t95 -40q13 -12 0 -25z"/>
<glyph unicode="" horiz-adv-x="864" d="M864 720q0 -39 -19.5 -72.5t-52.5 -52.5v-163q0 -30 -21 -51t-51 -21h-163q-19 -33 -52.5 -52.5t-72.5 -19.5t-72.5 19.5t-52.5 52.5h-91v-91q33 -19 52.5 -52.5t19.5 -72.5q0 -60 -42.5 -102t-101.5 -42q-60 0 -102 42t-42 102q0 39 19.5 72.5t52.5 52.5v163q0 30 21 51 t51 21h163q19 33 52.5 52.5t72.5 19.5t72.5 -19.5t52.5 -52.5h91v91q-33 19 -52.5 52.5t-19.5 72.5q0 59 42 101.5t102 42.5q59 0 101.5 -42.5t42.5 -101.5z"/>
<glyph unicode="" horiz-adv-x="864" d="M810 846v-126q0 -8 -5 -13t-13 -5h-252v-684q0 -8 -5 -13t-13 -5h-180q-8 0 -13 5t-5 13v684h-252q-8 0 -13 5t-5 13v126q0 8 5 13t13 5h720q8 0 13 -5t5 -13z"/>
<glyph unicode="" horiz-adv-x="864" d="M863 24q3 -9 -2 -17q-7 -7 -15 -7h-180q-14 0 -17 12l-48 150h-342l-48 -150q-3 -12 -17 -12h-176q-8 0 -15 7q-5 8 -2 17l282 828q3 12 17 12h264q12 0 17 -12zM310 324h239l-119 375z"/>
<glyph unicode="" horiz-adv-x="864" d="M144 180v-108q0 -8 -5 -13t-13 -5h-108q-8 0 -13 5t-5 13v108q0 8 5 13t13 5h108q8 0 13 -5t5 -13zM144 486v-108q0 -8 -5 -13t-13 -5h-108q-8 0 -13 5t-5 13v108q0 8 5 13t13 5h108q8 0 13 -5t5 -13zM144 792v-108q0 -8 -5 -13t-13 -5h-108q-8 0 -13 5t-5 13v108 q0 8 5 13t13 5h108q8 0 13 -5t5 -13zM864 180v-108q0 -8 -5 -13t-13 -5h-612q-8 0 -13 5t-5 13v108q0 8 5 13t13 5h612q8 0 13 -5t5 -13zM864 486v-108q0 -8 -5 -13t-13 -5h-612q-8 0 -13 5t-5 13v108q0 8 5 13t13 5h612q8 0 13 -5t5 -13zM864 792v-108q0 -8 -5 -13t-13 -5 h-612q-8 0 -13 5t-5 13v108q0 8 5 13t13 5h612q8 0 13 -5t5 -13z"/>
<glyph unicode="" horiz-adv-x="864" d="M252 576v-558q0 -8 -5 -13t-13 -5h-216q-8 0 -13 5t-5 13v540q0 8 5 13t13 5h234zM864 558v-540q0 -8 -5 -13t-13 -5h-504q-8 0 -13 5t-5 13v558h522q8 0 13 -5t5 -13zM864 846v-180q0 -8 -5 -13t-13 -5h-828q-8 0 -13 5t-5 13v180q0 8 5 13t13 5h828q8 0 13 -5t5 -13z "/>
<glyph unicode="" horiz-adv-x="864" d="M594 240l108 74v-116q0 -44 -32 -76t-76 -32h-486q-44 0 -76 32t-32 76v432q0 44 32 76t76 32h306v-44q-98 -15 -166 -64h-140v-432h486v42zM856 537q8 -6 8 -15q0 -10 -8 -15l-342 -234q-4 -3 -10 -3q-4 0 -8 2q-10 5 -10 16v127q-58 -1 -106.5 -9.5t-76 -18t-50 -23 t-28.5 -19t-11 -11.5l-1 -1q-5 -9 -15 -9h-4q-12 3 -14 17q0 121 72 197q80 86 234 91v127q0 11 10 16q10 6 18 -1z"/>
<glyph unicode="" horiz-adv-x="864" d="M864 450q0 -8 -5 -13t-13 -5h-396q-8 0 -13 5t-5 13v396q0 12 11 17q12 4 20 -4l121 -122l122 122q12 13 25 0l128 -128q13 -13 0 -25l-122 -122l121 -121q6 -4 6 -13zM0 414q0 8 5 13t13 5h396q8 0 13 -5t5 -13v-396q0 -12 -11 -17q-12 -4 -20 4l-121 122l-122 -122 q-12 -13 -25 0l-128 128q-13 13 0 25l122 122l-121 121q-6 5 -6 13z"/>
<glyph unicode="" horiz-adv-x="864" d="M756 846v-828q0 -8 -5 -13t-13 -5h-612q-8 0 -13 5t-5 13v342h162v-135q0 -12 11 -17q10 -4 20 4l219 220l-219 220q-9 8 -20 3q-11 -3 -11 -16v-135h-162v342q0 8 5 13t13 5h612q8 0 13 -5t5 -13z"/>
<glyph unicode="" horiz-adv-x="864" d="M432 864q179 0 305.5 -126.5t126.5 -305.5t-126.5 -305.5t-305.5 -126.5t-305.5 126.5t-126.5 305.5t126.5 305.5t305.5 126.5zM432 540l-70 -362q-2 -10 -2 -16q0 -30 21 -51t51 -21t51 21t21 51v378h-72zM666 432h108q0 142 -100 242t-242 100q-139 0 -239 -97.5 t-103 -236.5q3 116 87 198t201 82q119 0 203.5 -84.5t84.5 -203.5z"/>
<glyph unicode="" horiz-adv-x="864" d="M810 864q22 0 38 -16t16 -38v-756q0 -22 -16 -38t-38 -16h-756q-22 0 -38 16t-16 38v756q0 22 16 38t38 16h72v-108q0 -22 16 -38t38 -16t38 16t16 38v108h396v-108q0 -22 16 -38t38 -16t38 16t16 38v108h72zM612 270v108h-126v126h-108v-126h-126v-108h126v-126h108v126 h126z"/>
<glyph unicode="" horiz-adv-x="864" d="M810 864q22 0 38 -16t16 -38v-756q0 -22 -16 -38t-38 -16h-756q-22 0 -38 16t-16 38v756q0 22 16 38t38 16h72v-108q0 -22 16 -38t38 -16t38 16t16 38v108h396v-108q0 -22 16 -38t38 -16t38 16t16 38v108h72zM612 270v108h-360v-108h360z"/>
<glyph unicode="" horiz-adv-x="864" d="M810 864q22 0 38 -16t16 -38v-756q0 -22 -16 -38t-38 -16h-756q-22 0 -38 16t-16 38v756q0 22 16 38t38 16h72v-108q0 -22 16 -38t38 -16t38 16t16 38v108h396v-108q0 -22 16 -38t38 -16t38 16t16 38v108h72zM378 140l290 290l-76 76l-214 -214l-106 106l-76 -76z"/>
<glyph unicode="" horiz-adv-x="864" d="M810 864q22 0 38 -16t16 -38v-756q0 -22 -16 -38t-38 -16h-756q-22 0 -38 16t-16 38v756q0 22 16 38t38 16h72v-108q0 -22 16 -38t38 -16t38 16t16 38v108h396v-108q0 -22 16 -38t38 -16t38 16t16 38v108h72zM594 234l-90 90l90 90l-72 72l-90 -90l-90 90l-72 -72l90 -90 l-90 -90l72 -72l90 90l90 -90z"/>
<glyph unicode="" horiz-adv-x="864" d="M847 143q17 -23 17 -53q0 -38 -26 -64t-64 -26h-684q-54 0 -80 48q-25 48 5 92l273 402v304q0 8 5 13t13 5h252q8 0 13 -5t5 -13v-304zM324 144q30 0 51 21t21 51t-21 51t-51 21t-51 -21t-21 -51t21 -51t51 -21zM486 324q22 0 38 16t16 38t-16 38t-38 16t-38 -16t-16 -38 t16 -38t38 -16z"/>
<glyph unicode="" horiz-adv-x="864" d="M0 288q0 6 5 13l414 414q13 13 26 0l414 -414q13 -13 0 -26l-126 -126q-13 -13 -26 0l-275 275l-275 -275q-13 -13 -26 0l-126 126q-5 7 -5 13z"/>
<glyph unicode="" horiz-adv-x="864" d="M864 576q0 -6 -5 -13l-414 -414q-13 -13 -26 0l-414 414q-13 13 0 26l126 126q13 13 26 0l275 -276l275 276q13 13 26 0l126 -126q5 -7 5 -13z"/>
<glyph unicode="" horiz-adv-x="864" d="M675 126q0 -8 -5.5 -13t-12.5 -5h-387q-68 0 -115 47t-47 115v162h-90q-12 0 -17 11q-4 12 4 20l162 162q13 13 26 0l162 -162q8 -8 4 -20q-5 -11 -17 -11h-90v-162q0 -8 5 -13t13 -5h279q8 0 13 -5l109 -109q4 -4 4 -12zM859 401l-162 -162q-7 -5 -13 -5t-13 5l-162 162 q-8 8 -4 20q5 11 17 11h90v162q0 8 -5 13t-13 5h-279q-8 0 -13 5l-109 109q-4 4 -4 12t5.5 13t12.5 5h387q67 0 114.5 -47.5t47.5 -114.5v-162h90q12 0 17 -11q4 -12 -4 -20z"/>
<glyph unicode="🌄" horiz-adv-x="864" d="M810 756q22 0 38 -16t16 -38v-540q0 -22 -16 -38t-38 -16h-756q-22 0 -38 16t-16 38v540q0 22 16 38t38 16h756zM189 648q-34 0 -57.5 -23.5t-23.5 -57.5t23.5 -57.5t57.5 -23.5t57.5 23.5t23.5 57.5t-23.5 57.5t-57.5 23.5zM756 216l-216 324l-198 -252l-126 90 l-108 -162h648z"/>
<glyph unicode="🌎" horiz-adv-x="864" d="M432 864q179 0 305.5 -126.5t126.5 -305.5t-126.5 -305.5t-305.5 -126.5t-305.5 126.5t-126.5 305.5t126.5 305.5t305.5 126.5zM486 90q48 0 105 65t57 151q0 52 -37 89t-89 37h-72q-40 0 -65 18t-25 45q0 19 13 32t32 13t35 -18t28 -18q15 0 25.5 10.5t10.5 25.5 q0 36 -34 70q33 63 34 141q0 16 -15 18q-32 5 -57 5q-116 -4 -184 -56t-68 -142q0 -81 58.5 -139.5t139.5 -58.5h3q-3 -14 -3 -27q0 -41 25.5 -73t64.5 -41v-129q0 -8 5 -13t13 -5z"/>
<glyph unicode="🎤" horiz-adv-x="864" d="M270 504v198q0 67 47.5 114.5t114.5 47.5t114.5 -47.5t47.5 -114.5v-198q0 -67 -47.5 -114.5t-114.5 -47.5q-68 0 -115 47t-47 115zM774 504q0 -127 -82.5 -222.5t-205.5 -115.5v-148q0 -8 -5 -13t-13 -5h-72q-8 0 -13 5t-5 13v148q-123 20 -205.5 115.5t-82.5 222.5 q0 22 16 38t38 16t38 -16t16 -38q0 -97 68.5 -165.5t165.5 -68.5t165.5 68.5t68.5 165.5q0 22 16 38t38 16t38 -16t16 -38z"/>
<glyph unicode="🏢" horiz-adv-x="864" d="M234 0q8 0 13 5t5 13v504q0 8 -5 13t-13 5h-216q-8 0 -13 -5t-5 -13v-504q0 -8 5 -13t13 -5h216zM846 864q8 0 13 -5t5 -13v-828q0 -8 -5 -13t-13 -5h-198v162h-108v-162h-198q-8 0 -13 5t-5 13v828q0 8 5 13t13 5h504zM540 324v108h-108v-108h108zM540 594v108h-108 v-108h108zM756 324v108h-108v-108h108zM756 594v108h-108v-108h108z"/>
<glyph unicode="👀" horiz-adv-x="864" d="M861 442q7 -10 0 -20q-8 -11 -22 -30t-59 -67t-92.5 -84.5t-117.5 -66.5t-138 -30t-137 28.5t-119.5 69.5t-91 82t-60.5 70l-21 28q-7 10 0 20q8 11 22 30t59 67t92.5 84.5t117.5 66.5t138 30t137 -28.5t119 -69t90 -80.5t60 -68l21 -29zM432 270q67 0 114.5 47.5 t47.5 114.5t-47.5 114.5t-114.5 47.5t-114.5 -47.5t-47.5 -114.5q0 -68 47 -115t115 -47z"/>
<glyph unicode="👍" horiz-adv-x="864" d="M144 18q0 -8 -5 -13t-13 -5h-108q-8 0 -13 5t-5 13v504q0 8 5 13t13 5h108q8 0 13 -5t5 -13v-504zM864 315q0 -52 -47 -74q11 -20 11 -43q0 -29 -17 -52.5t-44 -32.5q7 -14 7 -32q0 -34 -23.5 -57.5t-57.5 -23.5h-189q-54 0 -103 22l-185 86v378q154 103 203 170t49 154 q0 22 16 38t38 16q32 0 59 -40q31 -43 31 -104q0 -30 -8.5 -69t-17 -62.5t-9.5 -23.5q-3 -9 2 -17t15 -8h189q34 0 57.5 -23.5t23.5 -57.5q0 -50 -44 -72q44 -24 44 -72z"/>
<glyph unicode="👎" horiz-adv-x="864" d="M144 846v-504q0 -8 -5 -13t-13 -5h-108q-8 0 -13 5t-5 13v504q0 8 5 13t13 5h108q8 0 13 -5t5 -13zM864 549q0 -50 -44 -72q44 -24 44 -72q0 -34 -23.5 -57.5t-57.5 -23.5h-189q-10 0 -15 -8t-2 -17q1 -1 9 -24t17 -62t9 -69q0 -60 -31 -105q-28 -39 -59 -39 q-22 0 -38 16t-16 38q0 87 -49 154t-203 170v378l185 86q49 22 103 22h189q34 0 57.5 -23.5t23.5 -57.5q0 -18 -7 -32q27 -9 44 -32.5t17 -52.5q0 -24 -11 -43q47 -22 47 -74z"/>
<glyph unicode="👤" horiz-adv-x="864" d="M864 54v-36q0 -8 -5 -13t-13 -5h-828q-8 0 -13 5t-5 13v36q0 50 33.5 84.5t81 54t95 37t81 45.5t33.5 67q-4 4 -11.5 12.5t-26 38t-33 62.5t-26 85.5t-11.5 107.5q0 89 63.5 152.5t152.5 63.5t152.5 -63.5t63.5 -152.5q0 -55 -11 -107t-27 -86.5t-32 -61t-27 -39.5 l-11 -12q0 -39 33.5 -67t81 -45.5t95 -37t81 -54t33.5 -84.5z"/>
<glyph unicode="👥" horiz-adv-x="864" d="M864 270v-36q0 -8 -5 -13t-13 -5h-346q-19 6 -34 13.5t-20 12.5l-6 4q7 11 17.5 31t28.5 82.5t18 126.5q0 29 -7 57t-17 46.5t-20.5 33t-17.5 21.5l-7 7v1q-3 24 -3 50q0 67 47.5 114.5t114.5 47.5t114.5 -47.5t47.5 -114.5q0 -66 -18 -123.5t-36 -82.5l-18 -24 q0 -31 18.5 -51.5t45 -32.5t53 -24.5t45 -35.5t18.5 -58zM540 54v-36q0 -8 -5 -13t-13 -5h-504q-8 0 -13 5t-5 13v36q0 34 18.5 57.5t45 36t53 24.5t45 32.5t18.5 51.5q-8 9 -20 26.5t-32 77.5t-20 126q0 67 47.5 114.5t114.5 47.5t114.5 -47.5t47.5 -114.5 q0 -66 -18 -123.5t-36 -82.5l-18 -24q0 -31 18.5 -51.5t45 -32.5t53 -24.5t45 -35.5t18.5 -58z"/>
<glyph unicode="👧" horiz-adv-x="864" d="M864 54v-36q0 -8 -5 -13t-13 -5h-828q-8 0 -13 5t-5 13v36q0 50 33.5 84.5t81 54t95 37t81 45.5t33.5 67q-48 0 -88.5 18t-57.5 36l-16 18q2 1 5.5 5t13 20.5t16.5 40t13 68.5t6 100q0 89 63.5 152.5t152.5 63.5t152.5 -63.5t63.5 -152.5q0 -55 5.5 -99.5t13.5 -68.5 t16 -40t13 -21l6 -5q-6 -8 -18 -20t-54 -32t-90 -20q0 -39 33.5 -67t81 -45.5t95 -37t81 -54t33.5 -84.5z"/>
<glyph unicode="💡" horiz-adv-x="864" d="M144 576q0 119 84.5 203.5t203.5 84.5t203.5 -84.5t84.5 -203.5q0 -55 -18.5 -102.5t-45 -82t-53 -66t-45 -69t-18.5 -76.5h-216q0 39 -18.5 76.5t-45 69t-53 66t-45 82t-18.5 102.5zM540 108v-54q0 -22 -16 -38t-38 -16h-108q-22 0 -38 16t-16 38v54h216z"/>
<glyph unicode="💧" horiz-adv-x="864" d="M432 0q-119 0 -203.5 84.5t-84.5 203.5q0 78 37 141l235 426q5 9 16 9t16 -9l235 -426q37 -66 37 -141q0 -119 -84.5 -203.5t-203.5 -84.5z"/>
<glyph unicode="💬" horiz-adv-x="864" d="M864 459q0 -146 -126.5 -248.5t-305.5 -102.5q-35 0 -73 5q-113 -113 -233 -113q-12 0 -17 11q-4 12 4 20q6 6 15.5 18t27 49t22.5 77q-83 49 -130.5 123.5t-47.5 160.5q0 146 126.5 248.5t305.5 102.5t305.5 -102.5t126.5 -248.5z"/>
<glyph unicode="💲" horiz-adv-x="864" d="M432 864q179 0 305.5 -126.5t126.5 -305.5t-126.5 -305.5t-305.5 -126.5t-305.5 126.5t-126.5 305.5t126.5 305.5t305.5 126.5zM486 166q69 11 115.5 49.5t46.5 108.5q0 55 -24 89.5t-60 46.5t-78 19t-78 9t-60 14.5t-24 37.5q0 26 32 40t76 14q72 0 144 -36l54 90 q-52 39 -144 51v57h-108v-58q-69 -11 -115.5 -49.5t-46.5 -108.5q0 -55 24 -89.5t60 -46.5t78 -19t78 -9t60 -14.5t24 -37.5q0 -26 -32 -40t-76 -14q-72 0 -144 36l-54 -90q52 -39 144 -51v-57h108v58z"/>
<glyph unicode="💳" horiz-adv-x="864" d="M864 702v-54h-864v54q0 22 16 38t38 16h756q22 0 38 -16t16 -38zM0 486h864v-324q0 -22 -16 -38t-38 -16h-756q-22 0 -38 16t-16 38v324z"/>
<glyph unicode="💻" horiz-adv-x="864" d="M810 864q22 0 38 -16t16 -38v-594q0 -22 -16 -38t-38 -16h-270v-52l151 -76q11 -3 11 -16q0 -8 -5 -13t-13 -5h-504q-14 0 -18 14q-2 14 10 20l152 76v52h-270q-22 0 -38 16t-16 38v594q0 22 16 38t38 16h756zM756 270v486h-648v-486h648z"/>
<glyph unicode="💼" horiz-adv-x="864" d="M810 702q22 0 38 -16t16 -38v-486q0 -22 -16 -38t-38 -16h-756q-22 0 -38 16t-16 38v486q0 22 16 38t38 16h216v90q0 41 43 57q38 15 119 15q82 0 119 -15q43 -16 43 -57v-90h216zM360 774v-72h144v72h-144z"/>
<glyph unicode="📁" horiz-adv-x="864" d="M0 162v540q0 22 16 38t38 16h312q12 0 23.5 -8.5t15.5 -20.5l27 -79h378q22 0 38 -16t16 -38v-432q0 -22 -16 -38t-38 -16h-756q-22 0 -38 16t-16 38z"/>
<glyph unicode="📄" horiz-adv-x="864" d="M756 576v-522q0 -22 -16 -38t-38 -16h-540q-22 0 -38 16t-16 38v756q0 22 16 38t38 16h306q6 0 13 -5l270 -270q5 -7 5 -13z"/>
<glyph unicode="📅" horiz-adv-x="864" d="M810 864q22 0 38 -16t16 -38v-756q0 -22 -16 -38t-38 -16h-756q-22 0 -38 16t-16 38v756q0 22 16 38t38 16h72v-108q0 -22 16 -38t38 -16t38 16t16 38v108h396v-108q0 -22 16 -38t38 -16t38 16t16 38v108h72zM270 126v144h-144v-144h144zM270 378v144h-144v-144h144z M504 126v144h-144v-144h144zM504 378v144h-144v-144h144zM738 126v144h-144v-144h144zM738 378v144h-144v-144h144z"/>
<glyph unicode="📊" horiz-adv-x="864" d="M342 864h180q8 0 13 -5t5 -13v-828q0 -8 -5 -13t-13 -5h-180q-8 0 -13 5t-5 13v828q0 8 5 13t13 5zM18 432h180q8 0 13 -5t5 -13v-396q0 -8 -5 -13t-13 -5h-180q-8 0 -13 5t-5 13v396q0 8 5 13t13 5zM666 648h180q8 0 13 -5t5 -13v-612q0 -8 -5 -13t-13 -5h-180 q-8 0 -13 5t-5 13v612q0 8 5 13t13 5z"/>
<glyph unicode="📍" horiz-adv-x="864" d="M432 288q-30 0 -54 4v-256q0 -4 1.5 -10t15 -16t37.5 -10t37.5 9t14.5 18l2 9v256q-24 -4 -54 -4zM432 864q104 0 178 -74t74 -178t-74 -178t-178 -74t-178 74t-74 178t74 178t178 74zM495 594q34 0 57.5 23.5t23.5 57.5t-23.5 57.5t-57.5 23.5t-57.5 -23.5t-23.5 -57.5 t23.5 -57.5t57.5 -23.5z"/>
<glyph unicode="📎" horiz-adv-x="864" d="M716 538l3 3q37 37 37 89t-37 89t-89 37t-89 -37l-396 -396q-37 -37 -37 -89t37 -89t89 -37t89 37l243 242q10 11 10 26t-10 25t-25 10t-26 -10l-153 -152q-16 -16 -38 -16t-38 16t-16 38t16 38l152 153q43 42 102.5 42t101.5 -42q42 -43 42 -102.5t-42 -101.5l-243 -243 q-68 -68 -165 -68t-166 68q-68 69 -68 166t68 165l396 396q69 69 166 69t165 -69q69 -68 69 -165t-69 -166l-39 -39q-3 61 -40 113z"/>
<glyph unicode="📓" horiz-adv-x="864" d="M756 864q22 0 38 -16t16 -38v-756q0 -22 -16 -38t-38 -16h-540q-22 0 -38 16t-16 38v54h-90q-8 0 -13 5t-5 13v72q0 8 5 13t13 5h90v162h-90q-8 0 -13 5t-5 13v72q0 8 5 13t13 5h90v162h-90q-8 0 -13 5t-5 13v72q0 8 5 13t13 5h90v54q0 22 16 38t38 16h540zM648 486v162 h-324v-162h324z"/>
<glyph unicode="📕" horiz-adv-x="864" d="M756 846v-90h-540v-108h522q8 0 13 -5t5 -13v-612q0 -8 -5 -13t-13 -5h-522q-45 0 -76.5 31.5t-31.5 76.5v648q0 45 31.5 76.5t76.5 31.5h522q8 0 13 -5t5 -13z"/>
<glyph unicode="📖" horiz-adv-x="864" d="M378 0q-6 0 -13 5q-39 39 -89 69t-92.5 46t-83.5 26t-60.5 13t-23.5 3q-16 2 -16 18v666q0 8 6 13q4 5 13 5q41 0 130 -28q149 -46 242 -139q5 -7 5 -13v-666q0 -12 -11 -17q-2 -1 -7 -1zM486 0q-5 0 -7 1q-11 5 -11 17v666q0 6 5 13q96 94 242 139q89 28 129 28 q7 0 14 -5q6 -5 6 -13v-666q0 -16 -17 -18q-4 0 -23.5 -3t-60.5 -13t-83 -26t-92.5 -46t-88.5 -69q-7 -5 -13 -5z"/>
<glyph unicode="📝" horiz-adv-x="864" d="M859 733l-49 -49l-126 126l49 49q13 13 25 0l101 -101q13 -12 0 -25zM594 360v-252h-486v540h306l108 108h-414q-44 0 -76 -32t-32 -76v-540q0 -44 32 -76t76 -32h486q44 0 76 32t32 76v360zM630 756l-376 -376q-3 -3 -3 -5l-72 -173l-1 -1q-3 -10 5 -18q5 -6 12 -6 q1 0 3 0.5t3 0.5l1 1l173 72q2 0 5 3l376 376z"/>
<glyph unicode="📞" horiz-adv-x="864" d="M864 761q0 -4 -1 -7q-37 -295 -248 -505.5t-505 -247.5q-3 -1 -7 -1q-5 0 -7 1q-6 3 -10 10l-85 214q-5 16 9 23l236 118q10 6 21 -3l115 -116q143 89 234 235l-115 115q-9 11 -3 21l118 236q7 14 23 9l214 -85q7 -4 9 -10q2 -4 2 -7z"/>
<glyph unicode="📠" horiz-adv-x="864" d="M864 54q0 -22 -16 -38t-38 -16h-756q-22 0 -38 16t-16 38v432q0 22 16 38t38 16h90v-180h576v180h90q22 0 38 -16t16 -38v-432zM756 162q0 22 -16 38t-38 16t-38 -16t-16 -38t16 -38t38 -16t38 16t16 38zM216 432v414q0 8 5 13t13 5h396q8 0 13 -5t5 -13v-414h-432z"/>
<glyph unicode="📥" horiz-adv-x="864" d="M863 332q1 -3 1 -8v-270q0 -22 -16 -38t-38 -16h-756q-22 0 -38 16t-16 38v270q0 5 1 8l72 486q2 20 17.5 33t35.5 13h612q20 0 35 -13t18 -33zM173 756l-64 -432h176q12 0 17 -11l35 -86q5 -11 17 -11h156q12 0 17 11l35 86q5 11 17 11h176l-64 432h-518z"/>
<glyph unicode="📦" horiz-adv-x="864" d="M861 611q3 -7 3 -17v-540q0 -22 -16 -38t-38 -16h-756q-22 0 -38 16t-16 38v540q0 10 3 17l72 216q5 16 19.5 26.5t31.5 10.5h612q17 0 31.5 -10.5t19.5 -26.5zM111 594h642l-54 162h-534z"/>
<glyph unicode="📰" horiz-adv-x="864" d="M846 810q8 0 13 -5t5 -13v-630q0 -45 -31.5 -76.5t-76.5 -31.5h-648q-45 0 -76.5 31.5t-31.5 76.5v522q0 8 5 13t13 5h72v-522q0 -15 10.5 -25.5t25.5 -10.5t25.5 10.5t10.5 25.5v612q0 8 5 13t13 5h666zM756 486v162h-324v-162h324z"/>
<glyph unicode="📱" horiz-adv-x="864" d="M648 864q22 0 38 -16t16 -38v-756q0 -22 -16 -38t-38 -16h-432q-22 0 -38 16t-16 38v756q0 22 16 38t38 16h432zM432 54q22 0 38 16t16 38t-16 38t-38 16t-38 -16t-16 -38t16 -38t38 -16zM612 216v504h-360v-504h360z"/>
<glyph unicode="📷" horiz-adv-x="864" d="M810 648q22 0 38 -16t16 -38v-432q0 -22 -16 -38t-38 -16h-756q-22 0 -38 16t-16 38v432q0 22 16 38t38 16h162l26 79q5 12 16 20.5t24 8.5h300q12 0 23.5 -8.5t15.5 -20.5l27 -79h162zM432 216q67 0 114.5 47.5t47.5 114.5t-47.5 114.5t-114.5 47.5t-114.5 -47.5 t-47.5 -114.5q0 -68 47 -115t115 -47z"/>
<glyph unicode="📹" horiz-adv-x="864" d="M864 684v-504q0 -12 -11 -17q-2 -1 -7 -1q-6 0 -13 5l-185 186v-137q0 -22 -16 -38t-38 -16h-540q-22 0 -38 16t-16 38v432q0 22 16 38t38 16h540q22 0 38 -16t16 -38v-137l185 186q8 8 20 4q11 -5 11 -17z"/>
<glyph unicode="🔀" horiz-adv-x="864" d="M294 615l-90 -120l-44 59q-16 22 -43 22h-99q-8 0 -13 5t-5 13v108q0 8 5 13t13 5h100q98 0 157 -78zM859 203l-162 -162q-7 -5 -13 -5q-5 0 -7 1q-11 5 -11 17v90h-100q-98 0 -157 78l-20 27l90 120l45 -59q16 -22 43 -22h99v90q0 12 11 17q12 4 20 -4l162 -162 q13 -13 0 -26zM859 635l-162 -162q-7 -5 -13 -5q-5 0 -7 1q-11 5 -11 17v90h-99q-27 0 -43 -22l-249 -332q-59 -78 -157 -78h-100q-8 0 -13 5t-5 13v108q0 8 5 13t13 5h99q27 0 43 22l249 332q59 78 157 78h100v90q0 12 11 17q12 4 20 -4l162 -162q13 -13 0 -26z"/>
<glyph unicode="🔁" horiz-adv-x="864" d="M679 661q13 -13 0 -26l-162 -162q-8 -8 -20 -4q-11 5 -11 17v90h-198q-60 0 -102 -42.5t-42 -101.5q0 -50 31 -89q9 -12 -1 -24l-78 -77q-4 -5 -12 -5t-13 6q-71 82 -71 189q0 119 84.5 203.5t203.5 84.5h198v90q0 12 11 17q12 4 20 -4zM185 203q-13 13 0 26l162 162 q8 8 20 4q11 -5 11 -17v-90h198q59 0 101.5 42t42.5 102q0 50 -31 89q-10 12 1 23l78 78q4 5 12 5t13 -6q71 -82 71 -189q0 -119 -84.5 -203.5t-203.5 -84.5h-198v-90q0 -12 -11 -17q-12 -4 -20 4z"/>
<glyph unicode="🔈" horiz-adv-x="864" d="M594 774v-684q0 -12 -11 -17q-12 -4 -20 4l-193 193h-136q-8 0 -13 5t-5 13v288q0 8 5 13t13 5h136l193 193q8 8 20 4q11 -5 11 -17z"/>
<glyph unicode="🔉" horiz-adv-x="864" d="M655 146q-13 -12 -25 0l-51 50q-12 14 0 26q87 87 87 210t-87 210q-13 12 0 25l51 51q12 12 25 0q78 -78 105.5 -182t0 -208t-105.5 -182zM459 774v-684q0 -12 -11 -17q-12 -4 -20 4l-193 193h-136q-7 0 -12.5 5t-5.5 13v288q0 8 5.5 13t12.5 5h136l193 193q8 8 20 4 q11 -5 11 -17z"/>
<glyph unicode="🔊" horiz-adv-x="864" d="M662 6l-51 50q-12 14 0 26q95 95 128.5 222.5t0 255t-128.5 222.5q-13 12 0 25l51 51q12 12 25 0q116 -116 157.5 -271t0 -310t-157.5 -271q-13 -12 -25 0zM547 146q-13 -12 -25 0l-51 50q-12 14 0 26q87 87 87 210t-87 210q-13 12 0 25l51 51q12 12 25 0 q78 -78 105.5 -182t0 -208t-105.5 -182zM351 774v-684q0 -12 -11 -17q-12 -4 -20 4l-193 193h-136q-7 0 -12.5 5t-5.5 13v288q0 8 5.5 13t12.5 5h136l193 193q8 8 20 4q11 -5 11 -17z"/>
<glyph unicode="🔋" horiz-adv-x="864" d="M864 522v-180q0 -8 -5 -13t-13 -5h-90v-54q0 -22 -16 -38t-38 -16h-648q-22 0 -38 16t-16 38v324q0 22 16 38t38 16h648q22 0 38 -16t16 -38v-54h90q8 0 13 -5t5 -13z"/>
<glyph unicode="🔎" horiz-adv-x="864" d="M540 864q134 0 229 -95t95 -229t-95 -229t-229 -95q-95 0 -173 50l-244 -245q-21 -21 -51 -21t-51 21t-21 51t21 51l245 244q-50 78 -50 173q0 134 95 229t229 95zM540 324q89 0 152.5 63.5t63.5 152.5t-63.5 152.5t-152.5 63.5t-152.5 -63.5t-63.5 -152.5t63.5 -152.5 t152.5 -63.5z"/>
<glyph unicode="🔑" horiz-adv-x="864" d="M144 0h-126q-8 0 -13 5t-5 13v136q0 8 5 13l335 335q-16 42 -16 92q0 112 79 191t191 79t191 -79t79 -191t-79 -191t-191 -79q-50 0 -92 16l-119 -119q-5 -5 -13 -5h-100v-90q0 -8 -5 -13t-13 -5h-90v-90q0 -8 -5 -13t-13 -5zM648 729q-34 0 -57.5 -23.5t-23.5 -57.5 t23.5 -57.5t57.5 -23.5t57.5 23.5t23.5 57.5t-23.5 57.5t-57.5 23.5z"/>
<glyph unicode="🔒" horiz-adv-x="864" d="M702 486q22 0 38 -16t16 -38v-378q0 -22 -16 -38t-38 -16h-540q-22 0 -38 16t-16 38v378q0 22 16 38t38 16h54v162q0 89 63.5 152.5t152.5 63.5t152.5 -63.5t63.5 -152.5v-162h54zM324 648v-162h216v162q0 45 -31.5 76.5t-76.5 31.5t-76.5 -31.5t-31.5 -76.5z"/>
<glyph unicode="🔓" horiz-adv-x="864" d="M756 396v252q0 45 -31.5 76.5t-76.5 31.5t-76.5 -31.5t-31.5 -76.5v-162h54q22 0 38 -16t16 -38v-378q0 -22 -16 -38t-38 -16h-540q-22 0 -38 16t-16 38v378q0 22 16 38t38 16h378v162q0 89 63.5 152.5t152.5 63.5t152.5 -63.5t63.5 -152.5v-252q0 -8 -5 -13t-13 -5h-72 q-8 0 -13 5t-5 13z"/>
<glyph unicode="🔔" horiz-adv-x="864" d="M342 90h180q0 -38 -26 -64t-64 -26t-64 26t-26 64zM863 173q-5 -11 -17 -11h-828q-12 0 -17 11q-4 12 4 20l157 156v245q0 112 79 191t191 79t191 -79t79 -191v-245l157 -156q8 -8 4 -20z"/>
<glyph unicode="🔕" horiz-adv-x="864" d="M342 90h180q0 -38 -26 -64t-64 -26t-64 26t-26 64zM162 522l360 -360h-504q-12 0 -17 11q-4 12 4 20l157 156v173zM849 15q-15 -15 -37 -15t-37 15l-760 760q-15 15 -15 36.5t15 37.5q15 15 36.5 15t37.5 -15l113 -114q37 59 97.5 94t132.5 35q112 0 191 -79t79 -191 v-245l157 -156q8 -8 4 -20q-5 -11 -17 -11h-71l74 -73q15 -16 15 -37.5t-15 -36.5z"/>
<glyph unicode="🔖" horiz-adv-x="864" d="M648 810v-792q0 -12 -11 -17q-2 -1 -7 -1q-6 0 -13 5l-185 185l-185 -185q-8 -8 -20 -4q-11 5 -11 17v792q0 22 16 38t38 16h324q22 0 38 -16t16 -38z"/>
<glyph unicode="🔗" horiz-adv-x="864" d="M795 464l-122 -122q6 69 -18 134l64 65q37 37 37 89t-37 89t-89 37t-89 -37l-135 -134q-37 -37 -37 -89t37 -90q16 -16 16 -38t-16 -38t-38 -16t-38 16q-68 69 -68 166t68 165l134 134q69 69 166 69t165 -69q69 -68 69 -165t-69 -166zM534 203l-135 -135 q-68 -68 -165 -68t-166 68q-68 69 -68 166t68 165l123 123q-6 -70 18 -135l-64 -64q-37 -37 -37 -89t37 -89t89 -37t89 37l134 134q37 37 37 89t-37 89q-16 16 -16 38.5t16 38.5t38.5 16t38.5 -16q68 -69 68 -166t-68 -165z"/>
<glyph unicode="🚫" horiz-adv-x="864" d="M864 432q0 -179 -126.5 -305.5t-305.5 -126.5t-305.5 126.5t-126.5 305.5t126.5 305.5t305.5 126.5t305.5 -126.5t126.5 -305.5zM144 432q0 -86 45 -154l397 397q-68 45 -154 45q-119 0 -203.5 -84.5t-84.5 -203.5zM675 586l-397 -397q68 -45 154 -45q119 0 203.5 84.5 t84.5 203.5q0 86 -45 154z"/>
<glyph/>
<glyph horiz-adv-x="288"/>
<glyph/>
<glyph unicode=""/>
<glyph unicode=" " horiz-adv-x="216"/>
<glyph unicode="A" horiz-adv-x="580" d="M567 0h-92l-61 181h-251l-65 -181h-86l234 624h97zM382 256l-92 276l-100 -276h192z"/>
<glyph unicode="B" horiz-adv-x="580" d="M543 187q0 -84 -57 -135.5t-137 -51.5h-287v624h282q69 0 118 -42t50 -116q0 -42 -21 -79t-60 -51q50 -17 81 -56.5t31 -92.5zM429 448q0 51 -26.5 76.5t-92.5 26.5h-162v-192h164q59 0 87 25.5t30 63.5zM459 176q0 57 -30 85t-114 29h-167v-219h195q56 0 85 32t31 73z "/>
<glyph unicode="C" horiz-adv-x="628" d="M592 229q-13 -105 -84 -175.5t-182 -70.5q-63 0 -114 20.5t-83 54t-53.5 78t-30.5 89.5t-9 92q0 83 31 154t97.5 119t157.5 51q29 0 59 -5t64.5 -19.5t62 -36t49 -59t28.5 -85.5h-82q-12 62 -58 95t-111 33q-107 0 -157.5 -68.5t-52.5 -178.5q2 -66 21 -122.5t63.5 -96.5 t108.5 -40q81 0 130.5 45t61.5 126h83z"/>
<glyph unicode="D" horiz-adv-x="628" d="M584 334q0 -138 -67 -235t-183 -99h-265v624h262q42 0 83 -16t79.5 -48t63.5 -91t27 -135zM497 327q0 96 -43 160t-135 64h-164v-480h174q76 0 122 73t46 183z"/>
<glyph unicode="E" horiz-adv-x="580" d="M534 0h-461v624h456v-76h-371v-190h342v-75h-342v-208h376v-75z"/>
<glyph unicode="F" horiz-adv-x="530" d="M505 548h-347v-190h306v-75h-306v-283h-85v624h432v-76z"/>
<glyph unicode="G" horiz-adv-x="674" d="M610 0h-54l-20 83q-29 -41 -84 -68t-121 -29q-149 0 -219.5 90t-70.5 241q0 60 18.5 115.5t53.5 101.5t93 74t130 29q100 0 175.5 -53.5t88.5 -149.5h-81q-33 130 -187 130q-89 0 -147 -68t-58 -184q0 -124 56.5 -191.5t148.5 -67.5q72 0 131 45q38 31 52.5 67t16.5 95 h-194v72h272v-332z"/>
<glyph unicode="H" horiz-adv-x="628" d="M562 0h-85v290h-326v-290h-85v624h85v-259h326v259h85v-624z"/>
<glyph unicode="I" horiz-adv-x="240" d="M163 0h-85v624h85v-624z"/>
<glyph unicode="J" horiz-adv-x="434" d="M372 168q0 -96 -49.5 -139.5t-130.5 -45.5q-93 0 -135.5 47.5t-42.5 108.5v61h79v-44q0 -101 94 -101q51 0 74.5 26t24.5 82v461h86v-456z"/>
<glyph unicode="K" horiz-adv-x="580" d="M575 0h-109l-219 312l-98 -93v-219h-85v624h85v-304l303 304h116l-260 -252z"/>
<glyph unicode="L" horiz-adv-x="484" d="M466 0h-402v624h85v-549h317v-75z"/>
<glyph unicode="M" horiz-adv-x="722" d="M661 0h-83v524l-174 -524h-84l-178 523v-523h-80v624h121l180 -529l178 529h120v-624z"/>
<glyph unicode="N" horiz-adv-x="628" d="M562 0h-96l-318 503v-503h-82v624h100l314 -505v505h82v-624z"/>
<glyph unicode="O" horiz-adv-x="674" d="M641 312q0 -35 -5 -69.5t-23.5 -82.5t-49 -84t-88.5 -62t-136 -27q-76 0 -135.5 27.5t-95 74t-54 103.5t-18.5 120q0 89 31.5 160t101.5 117.5t170 47.5q66 0 119.5 -20.5t86.5 -53.5t55.5 -77t31.5 -87t9 -87zM556 312q0 112 -57.5 180.5t-159.5 69.5q-97 0 -157 -68 t-60 -182q0 -113 58 -181t159 -69q102 0 159.5 68.5t57.5 181.5z"/>
<glyph unicode="P" horiz-adv-x="580" d="M539 448q0 -76 -45 -129.5t-140 -55.5h-196v-263h-85v624h281q79 0 131 -46t54 -130zM452 448q0 103 -123 103h-171v-217h168q124 0 126 114z"/>
<glyph unicode="Q" horiz-adv-x="674" d="M641 312q0 -150 -91 -240l85 -66l-41 -51l-96 75q-65 -43 -160 -43q-76 0 -135.5 27.5t-95.5 74t-54.5 103.5t-18.5 120q0 138 78 230.5t226 94.5q66 0 119 -20.5t86.5 -53.5t56.5 -77t32 -87t9 -87zM554 312q0 112 -57 180.5t-159 69.5q-98 0 -157.5 -67.5t-59.5 -182.5 q0 -113 58 -181t159 -69q51 0 91 20l-65 49l43 53l80 -61q67 70 67 189z"/>
<glyph unicode="R" horiz-adv-x="628" d="M584 0h-95q-11 24 -16 63.5t-6.5 79t-2.5 47.5q-10 75 -102 76h-212v-266h-85v624h299q80 0 137 -43.5t59 -128.5q0 -97 -91 -145q69 -22 77 -101q3 -24 5.5 -66.5t6 -69.5t10.5 -45q7 -17 16 -25zM474 444q0 104 -103 107h-221v-212h214q47 0 78.5 29t31.5 76z"/>
<glyph unicode="S" horiz-adv-x="580" d="M537 175q0 -91 -67.5 -139.5t-176.5 -48.5q-249 0 -250 219h78q0 -141 172 -147q69 0 116 24.5t47 80.5q0 54 -38.5 74t-164.5 48q-15 3 -22 5q-76 17 -121.5 51.5t-47.5 103.5q0 82 54.5 136.5t161.5 54.5q65 0 112.5 -16.5t71 -38.5t37.5 -52t17.5 -49t4.5 -37v-5h-78 q0 63 -45.5 93.5t-111.5 33.5q-27 0 -50.5 -5t-45 -16.5t-34 -34t-12.5 -54.5q0 -60 75 -76l178 -41q140 -31 140 -164z"/>
<glyph unicode="T" horiz-adv-x="530" d="M519 548h-212v-548h-85v548h-210v76h507v-76z"/>
<glyph unicode="U" horiz-adv-x="628" d="M560 205q0 -93 -63.5 -154.5t-188.5 -62.5q-119 0 -178.5 55t-61.5 158v423h85v-407q0 -72 40 -113.5t115 -41.5q76 0 120.5 40t46.5 113v409h85v-419z"/>
<glyph unicode="V" horiz-adv-x="580" d="M561 624l-227 -624h-90l-227 624h98l177 -533l184 533h85z"/>
<glyph unicode="W" horiz-adv-x="819" d="M806 624l-165 -624h-88l-142 517l-146 -517h-89l-162 624h91l115 -509l143 509h91l143 -509l115 509h94z"/>
<glyph unicode="X" horiz-adv-x="580" d="M562 0h-105l-167 256l-173 -256h-101l223 320l-210 304h106l158 -239l159 239h101l-209 -305z"/>
<glyph unicode="Y" horiz-adv-x="580" d="M566 624l-235 -375v-249h-84v249l-234 375h102l178 -300l179 300h94z"/>
<glyph unicode="Z" horiz-adv-x="530" d="M510 0h-490v69l382 480h-354v75h462v-73l-384 -475h384v-76z"/>
<glyph unicode="a" horiz-adv-x="484" d="M461 1v-1q-24 -9 -50 -9q-71 0 -73 68q-65 -70 -164 -73q-64 0 -104 37.5t-40 90.5q0 33 12 58.5t27 40t45 26t48.5 15.5t56.5 10t51 9q64 12 64 55q0 35 -26.5 56t-78.5 21q-47 0 -75 -22.5t-29 -67.5h-71q0 62 47 106t138 45q70 0 121 -34.5t51 -99.5v-243 q0 -17 2.5 -25t14 -13t33.5 5v-55zM332 151v82q-17 -11 -57.5 -19.5t-75 -15t-62.5 -28t-28 -55.5q0 -33 22 -50t59 -17q48 0 95 29t47 74z"/>
<glyph unicode="b" horiz-adv-x="484" d="M459 240q2 -45 -8 -88t-32.5 -81.5t-64 -61.5t-96.5 -23q-93 0 -134 70l-6 -56h-69v624h78v-227q50 66 139 69q83 0 136.5 -63t56.5 -163zM379 227q0 84 -33.5 127.5t-93.5 43.5q-35 0 -61 -16t-40 -42.5t-20.5 -54.5t-6.5 -57q0 -171 132 -175q59 0 91 47.5t32 126.5z "/>
<glyph unicode="c" horiz-adv-x="434" d="M418 160q-10 -90 -65.5 -132t-126.5 -42q-86 0 -143.5 67t-57.5 174q0 116 58.5 178t145.5 62q73 0 127 -39t62 -126h-73q-4 45 -35 70.5t-78 25.5q-56 0 -91 -40.5t-35 -130.5q0 -72 35.5 -121.5t90.5 -49.5q94 0 112 104h74z"/>
<glyph unicode="d" horiz-adv-x="484" d="M27 240q3 100 56.5 163t136.5 63q88 -3 139 -69v227h78v-624h-69v64q-20 -35 -59 -56.5t-81 -21.5q-55 0 -96.5 23t-64 61.5t-32.5 81.5t-8 88zM107 227q0 -79 32 -126.5t91 -47.5q132 4 132 175q0 65 -31 117.5t-97 52.5q-60 0 -93.5 -43.5t-33.5 -127.5z"/>
<glyph unicode="e" horiz-adv-x="484" d="M453 201h-339q0 -64 38.5 -104.5t95.5 -40.5q55 0 88 29.5t33 56.5h78q-13 -73 -68 -114t-135 -41q-96 0 -152.5 65t-58.5 162q0 114 59 184t154 70q101 0 155.5 -73.5t51.5 -193.5zM373 263q0 61 -37 99t-89 38q-54 0 -92.5 -40.5t-40.5 -96.5h259z"/>
<glyph unicode="f" horiz-adv-x="240" d="M227 630v-63q-13 2 -32 2q-23 0 -32.5 -10.5t-9.5 -35.5v-69h74v-69h-74v-385h-78v385h-63v69h63v84q0 41 31 69t81 28q23 0 40 -5z"/>
<glyph unicode="g" horiz-adv-x="518" d="M458 20q0 -111 -54 -165t-151 -54q-26 0 -52 5.5t-56 19t-49 44t-20 74.5h76q0 -34 29 -53t67 -19q63 0 98.5 35t35.5 107v27q-50 -54 -139 -54q-76 0 -137.5 62.5t-63.5 165.5q0 117 59 184t153 67q41 0 75.5 -18t52.5 -46v55h76v-437zM382 226q0 76 -35 119.5t-96 43.5 q-51 0 -89.5 -41t-38.5 -115q0 -87 39 -132.5t92 -45.5q56 0 91.5 45.5t36.5 125.5z"/>
<glyph unicode="h" horiz-adv-x="484" d="M427 0h-78v297q0 101 -89 101q-54 0 -91 -38t-37 -113v-247h-78v624h78v-231q46 70 141 74q64 0 109 -38t45 -127v-302z"/>
<glyph unicode="i" horiz-adv-x="194" d="M134 536h-78v86h78v-86zM134 0h-78v454h78v-454z"/>
<glyph unicode="j" horiz-adv-x="229" d="M171 -78q0 -45 -29.5 -74t-84.5 -29q-25 0 -39 3v66q19 -4 35 -4q22 0 31 12t9 43v515h78v-532zM171 536h-78v88h78v-88z"/>
<glyph unicode="k" horiz-adv-x="434" d="M434 0h-97l-150 222l-55 -54v-168h-78v624h78v-363l194 193h98l-181 -174z"/>
<glyph unicode="l" horiz-adv-x="194" d="M135 0h-79v624h79v-624z"/>
<glyph unicode="m" horiz-adv-x="722" d="M669 0h-78v293q0 105 -84 105q-46 0 -75 -33t-31 -89v-276h-78v313q0 36 -17.5 60.5t-55.5 24.5q-48 0 -82 -36t-35 -115v-247h-78v454h72v-64q49 76 139 76q84 0 122 -73q47 73 139 73q18 0 35.5 -3.5t37.5 -14t34.5 -27t24.5 -44.5t10 -64v-313z"/>
<glyph unicode="n" horiz-adv-x="484" d="M427 0h-78v284q0 114 -89 114q-55 0 -91.5 -37.5t-36.5 -101.5v-259h-78v454h74v-66q15 25 54.5 51.5t90.5 26.5q70 0 112 -40.5t42 -123.5v-302z"/>
<glyph unicode="o" horiz-adv-x="484" d="M456 227q0 -98 -57.5 -168t-155.5 -72q-97 0 -154.5 70.5t-57.5 169.5q0 101 57 170.5t155 69.5t155.5 -69.5t57.5 -170.5zM376 227q1 39 -12 76.5t-44.5 66t-76.5 29.5q-65 0 -98.5 -54t-33.5 -118q0 -73 32.5 -123t99.5 -50t98.5 49t34.5 124z"/>
<glyph unicode="p" horiz-adv-x="484" d="M460 214q-3 -100 -56.5 -163t-137.5 -63q-87 3 -138 69v-237h-79v634h70v-64q20 35 59 56.5t81 21.5q55 0 96.5 -23t64 -61.5t32.5 -81.5t8 -88zM380 227q0 79 -32 126.5t-91 47.5q-132 -4 -132 -175q0 -65 31 -117.5t97 -52.5q60 0 93.5 43.5t33.5 127.5z"/>
<glyph unicode="q" horiz-adv-x="484" d="M19 214q0 46 10 88t32 81t63 62t96 23q92 0 133 -70l7 56h70v-634h-78v237q-52 -66 -139 -69q-85 0 -138.5 60.5t-55.5 165.5zM99 227q0 -83 34 -127t94 -44q45 0 75.5 29t41 65t10.5 76q0 171 -132 175q-59 0 -91 -47.5t-32 -126.5z"/>
<glyph unicode="r" horiz-adv-x="288" d="M257 385q-65 0 -105.5 -30t-40.5 -83v-272h-78v454h75v-77q40 87 149 87v-79z"/>
<glyph unicode="s" horiz-adv-x="434" d="M405 137q0 -65 -48 -108t-131 -43q-85 0 -137.5 38.5t-58.5 121.5h75q0 -93 121 -93q43 0 73 18t30 53q0 27 -27.5 42.5t-129.5 39.5q-26 6 -43.5 12.5t-39 19.5t-32.5 34t-11 50q0 69 48 107t124 38q52 0 88.5 -15.5t53 -40.5t23.5 -45.5t8 -41.5h-74q0 76 -107 76 q-11 0 -22 -1.5t-28 -7t-28.5 -19.5t-12.5 -36q0 -29 27.5 -41t126.5 -36q62 -17 96.5 -43.5t35.5 -78.5z"/>
<glyph unicode="t" horiz-adv-x="240" d="M227 54v-64q-23 -5 -40 -5q-50 0 -81 28t-31 69v303h-59v69h59v128h78v-128h74v-69h-74v-287q0 -25 9.5 -36t32.5 -11q12 0 32 3z"/>
<glyph unicode="u" horiz-adv-x="484" d="M49 454h79v-284q0 -114 89 -114q55 0 91.5 37.5t36.5 101.5v259h78v-454h-75v66q-15 -25 -54.5 -51.5t-90.5 -26.5q-70 0 -112 40.5t-42 123.5v302z"/>
<glyph unicode="v" horiz-adv-x="434" d="M417 454l-173 -454h-82l-165 454h87l124 -372l127 372h82z"/>
<glyph unicode="w" horiz-adv-x="628" d="M615 454l-131 -454h-80l-91 351l-91 -351h-80l-130 454h83l86 -358l93 358h85l89 -358l91 358h76z"/>
<glyph unicode="x" horiz-adv-x="434" d="M425 0h-98l-112 171l-110 -171h-96l160 234l-152 220h98l105 -161l106 161h92l-153 -221z"/>
<glyph unicode="y" horiz-adv-x="434" d="M425 454q-70 -199 -133 -365t-77 -195q-28 -56 -63 -72t-99 -2v70q69 -26 96 24l31 72l-170 468h86l124 -371l123 371h82z"/>
<glyph unicode="z" horiz-adv-x="434" d="M407 0h-380v59l273 331h-252v64h350v-63l-271 -329h280v-62z"/>
<glyph unicode="" horiz-adv-x="864" d="M810 324q22 0 38 -16t16 -38v-216q0 -22 -16 -38t-38 -16h-756q-22 0 -38 16t-16 38v216q0 22 16 38t38 16h756zM486 108q22 0 38 16t16 38t-16 38t-38 16t-38 -16t-16 -38t16 -38t38 -16zM702 108q22 0 38 16t16 38t-16 38t-38 16t-38 -16t-16 -38t16 -38t38 -16z M791 818l64 -430q-22 8 -45 8h-756q-23 0 -45 -8l64 430q2 20 17.5 33t35.5 13h234v-110h-135q-12 0 -17 -11q-4 -12 4 -20l220 -219l220 219q8 8 4 20q-5 11 -17 11h-135v110h234q20 0 35 -13t18 -33z"/>
</font>
</defs>
</svg>
